<svg width="287" height="112" viewBox="0 0 287 112" fill="none" xmlns="http://www.w3.org/2000/svg">
<path d="M6.48426 4.4206C6.77829 1.90041 8.9133 0 11.4506 0H24V60H5.61725C2.62622 60 0.304328 57.3915 0.65093 54.4206L6.48426 4.4206Z" fill="#2E363E"/>
<rect width="239" height="60" transform="translate(24)" fill="#2E363E"/>
<path d="M40.8071 21.008C42.4231 21.008 43.8791 21.384 45.1751 22.136C46.4711 22.872 47.4871 23.896 48.2231 25.208C48.9751 26.504 49.3511 27.968 49.3511 29.6C49.3511 31.232 48.9751 32.704 48.2231 34.016C47.4871 35.312 46.4711 36.336 45.1751 37.088C43.8791 37.824 42.4231 38.192 40.8071 38.192C39.3031 38.192 37.9351 37.864 36.7031 37.208C35.4711 36.552 34.4711 35.648 33.7031 34.496C32.9351 33.344 32.4791 32.032 32.3351 30.56H29.2631V38H26.8871V21.2H29.2631V28.4H32.3591C32.5351 26.976 33.0071 25.704 33.7751 24.584C34.5591 23.464 35.5591 22.592 36.7751 21.968C37.9911 21.328 39.3351 21.008 40.8071 21.008ZM40.8071 36.032C41.9591 36.032 42.9991 35.76 43.9271 35.216C44.8711 34.656 45.6071 33.888 46.1351 32.912C46.6791 31.936 46.9511 30.832 46.9511 29.6C46.9511 28.368 46.6791 27.264 46.1351 26.288C45.6071 25.312 44.8711 24.552 43.9271 24.008C42.9991 23.448 41.9591 23.168 40.8071 23.168C39.6711 23.168 38.6391 23.448 37.7111 24.008C36.7831 24.552 36.0471 25.312 35.5031 26.288C34.9751 27.264 34.7111 28.368 34.7111 29.6C34.7111 30.832 34.9751 31.936 35.5031 32.912C36.0471 33.888 36.7831 34.656 37.7111 35.216C38.6391 35.76 39.6711 36.032 40.8071 36.032ZM63.0918 25.28V38H60.7878V27.296H55.3158L55.1718 30.128C55.0918 31.84 54.9398 33.272 54.7158 34.424C54.4918 35.56 54.1238 36.472 53.6118 37.16C53.0998 37.848 52.3878 38.192 51.4758 38.192C51.0598 38.192 50.5878 38.12 50.0598 37.976L50.2038 36.032C50.4118 36.08 50.6038 36.104 50.7798 36.104C51.4198 36.104 51.8998 35.824 52.2198 35.264C52.5398 34.704 52.7478 34.04 52.8438 33.272C52.9398 32.504 53.0278 31.408 53.1078 29.984L53.3238 25.28H63.0918ZM67.2468 25.28H69.5508V34.544L77.3508 25.28H79.4388V38H77.1348V28.736L69.3588 38H67.2468V25.28ZM93.8109 25.28V38H91.7469V33.968H88.0509H87.7869L85.0029 38H82.5309L85.6269 33.656C84.6669 33.368 83.9309 32.896 83.4189 32.24C82.9069 31.568 82.6509 30.736 82.6509 29.744C82.6509 28.288 83.1469 27.184 84.1389 26.432C85.1309 25.664 86.4989 25.28 88.2429 25.28H93.8109ZM85.0029 29.816C85.0029 30.664 85.2669 31.296 85.7949 31.712C86.3389 32.112 87.1469 32.312 88.2189 32.312H91.7469V27.296H88.3149C86.1069 27.296 85.0029 28.136 85.0029 29.816ZM110.392 30.608H106.888V38H104.536V21.2H106.888V28.496H110.44L115.72 21.2H118.288L112.288 29.336L118.576 38H115.84L110.392 30.608ZM125.635 38.144C124.371 38.144 123.235 37.864 122.227 37.304C121.219 36.744 120.427 35.976 119.851 35C119.291 34.008 119.011 32.888 119.011 31.64C119.011 30.392 119.291 29.28 119.851 28.304C120.427 27.312 121.219 26.544 122.227 26C123.235 25.44 124.371 25.16 125.635 25.16C126.899 25.16 128.027 25.44 129.019 26C130.027 26.544 130.811 27.312 131.371 28.304C131.947 29.28 132.235 30.392 132.235 31.64C132.235 32.888 131.947 34.008 131.371 35C130.811 35.976 130.027 36.744 129.019 37.304C128.027 37.864 126.899 38.144 125.635 38.144ZM125.635 36.128C126.451 36.128 127.179 35.944 127.819 35.576C128.475 35.192 128.987 34.664 129.355 33.992C129.723 33.304 129.907 32.52 129.907 31.64C129.907 30.76 129.723 29.984 129.355 29.312C128.987 28.624 128.475 28.096 127.819 27.728C127.179 27.36 126.451 27.176 125.635 27.176C124.819 27.176 124.083 27.36 123.427 27.728C122.787 28.096 122.275 28.624 121.891 29.312C121.523 29.984 121.339 30.76 121.339 31.64C121.339 32.52 121.523 33.304 121.891 33.992C122.275 34.664 122.787 35.192 123.427 35.576C124.083 35.944 124.819 36.128 125.635 36.128ZM135.262 25.28H137.566V30.68H144.814V25.28H147.118V38H144.814V32.672H137.566V38H135.262V25.28ZM164.234 35.984V40.952H162.074V38H151.442V40.952H149.258V35.984H149.93C150.746 35.936 151.306 35.36 151.61 34.256C151.914 33.152 152.122 31.592 152.234 29.576L152.426 25.28H162.29V35.984H164.234ZM154.346 29.744C154.282 31.344 154.146 32.672 153.938 33.728C153.746 34.768 153.386 35.52 152.858 35.984H159.986V27.296H154.466L154.346 29.744ZM173.68 25.16C174.912 25.16 176.016 25.432 176.992 25.976C177.968 26.52 178.728 27.28 179.272 28.256C179.832 29.232 180.112 30.36 180.112 31.64C180.112 32.92 179.832 34.056 179.272 35.048C178.728 36.024 177.968 36.784 176.992 37.328C176.016 37.872 174.912 38.144 173.68 38.144C172.768 38.144 171.928 37.968 171.16 37.616C170.408 37.264 169.768 36.752 169.24 36.08V42.656H166.936V25.28H169.144V27.296C169.656 26.592 170.304 26.064 171.088 25.712C171.872 25.344 172.736 25.16 173.68 25.16ZM173.488 36.128C174.304 36.128 175.032 35.944 175.672 35.576C176.328 35.192 176.84 34.664 177.208 33.992C177.592 33.304 177.784 32.52 177.784 31.64C177.784 30.76 177.592 29.984 177.208 29.312C176.84 28.624 176.328 28.096 175.672 27.728C175.032 27.36 174.304 27.176 173.488 27.176C172.688 27.176 171.96 27.368 171.304 27.752C170.664 28.12 170.152 28.64 169.768 29.312C169.4 29.984 169.216 30.76 169.216 31.64C169.216 32.52 169.4 33.304 169.768 33.992C170.136 34.664 170.648 35.192 171.304 35.576C171.96 35.944 172.688 36.128 173.488 36.128ZM187.578 25.16C189.338 25.16 190.682 25.592 191.61 26.456C192.554 27.32 193.026 28.608 193.026 30.32V38H190.842V36.32C190.458 36.912 189.906 37.368 189.186 37.688C188.482 37.992 187.642 38.144 186.666 38.144C185.242 38.144 184.098 37.8 183.234 37.112C182.386 36.424 181.962 35.52 181.962 34.4C181.962 33.28 182.37 32.384 183.186 31.712C184.002 31.024 185.298 30.68 187.074 30.68H190.722V30.224C190.722 29.232 190.434 28.472 189.858 27.944C189.282 27.416 188.434 27.152 187.314 27.152C186.562 27.152 185.826 27.28 185.106 27.536C184.386 27.776 183.778 28.104 183.282 28.52L182.322 26.792C182.978 26.264 183.762 25.864 184.674 25.592C185.586 25.304 186.554 25.16 187.578 25.16ZM187.05 36.368C187.93 36.368 188.69 36.176 189.33 35.792C189.97 35.392 190.434 34.832 190.722 34.112V32.336H187.17C185.218 32.336 184.242 32.992 184.242 34.304C184.242 34.944 184.49 35.448 184.986 35.816C185.482 36.184 186.17 36.368 187.05 36.368ZM206.355 27.296H201.699V38H199.395V27.296H194.739V25.28H206.355V27.296ZM214.291 29.6C215.907 29.616 217.139 29.984 217.987 30.704C218.835 31.424 219.259 32.44 219.259 33.752C219.259 35.128 218.795 36.192 217.867 36.944C216.955 37.68 215.643 38.04 213.931 38.024L208.411 38V25.28H210.715V29.576L214.291 29.6ZM213.739 36.272C214.779 36.288 215.563 36.08 216.091 35.648C216.635 35.216 216.907 34.576 216.907 33.728C216.907 32.896 216.643 32.288 216.115 31.904C215.603 31.52 214.811 31.32 213.739 31.304L210.715 31.256V36.248L213.739 36.272ZM233.412 31.712C233.412 31.888 233.396 32.12 233.364 32.408H223.044C223.188 33.528 223.676 34.432 224.508 35.12C225.356 35.792 226.404 36.128 227.652 36.128C229.172 36.128 230.396 35.616 231.324 34.592L232.596 36.08C232.02 36.752 231.3 37.264 230.436 37.616C229.588 37.968 228.636 38.144 227.58 38.144C226.236 38.144 225.044 37.872 224.004 37.328C222.964 36.768 222.156 35.992 221.58 35C221.02 34.008 220.74 32.888 220.74 31.64C220.74 30.408 221.012 29.296 221.556 28.304C222.116 27.312 222.876 26.544 223.836 26C224.812 25.44 225.908 25.16 227.124 25.16C228.34 25.16 229.42 25.44 230.364 26C231.324 26.544 232.068 27.312 232.596 28.304C233.14 29.296 233.412 30.432 233.412 31.712ZM227.124 27.104C226.02 27.104 225.092 27.44 224.34 28.112C223.604 28.784 223.172 29.664 223.044 30.752H231.204C231.076 29.68 230.636 28.808 229.884 28.136C229.148 27.448 228.228 27.104 227.124 27.104ZM245.35 31.4C246.998 31.816 247.822 32.848 247.822 34.496C247.822 35.616 247.398 36.48 246.55 37.088C245.718 37.696 244.47 38 242.806 38H236.686V25.28H242.59C244.094 25.28 245.27 25.568 246.118 26.144C246.966 26.704 247.39 27.504 247.39 28.544C247.39 29.216 247.206 29.8 246.838 30.296C246.486 30.776 245.99 31.144 245.35 31.4ZM238.942 30.752H242.398C243.278 30.752 243.942 30.592 244.39 30.272C244.854 29.952 245.086 29.488 245.086 28.88C245.086 27.664 244.19 27.056 242.398 27.056H238.942V30.752ZM242.638 36.224C243.598 36.224 244.318 36.072 244.798 35.768C245.278 35.464 245.518 34.992 245.518 34.352C245.518 33.696 245.294 33.208 244.846 32.888C244.414 32.568 243.726 32.408 242.782 32.408H238.942V36.224H242.638ZM255.664 25.16C257.424 25.16 258.768 25.592 259.696 26.456C260.64 27.32 261.112 28.608 261.112 30.32V38H258.928V36.32C258.544 36.912 257.992 37.368 257.272 37.688C256.568 37.992 255.728 38.144 254.752 38.144C253.328 38.144 252.184 37.8 251.32 37.112C250.472 36.424 250.048 35.52 250.048 34.4C250.048 33.28 250.456 32.384 251.272 31.712C252.088 31.024 253.384 30.68 255.16 30.68H258.808V30.224C258.808 29.232 258.52 28.472 257.944 27.944C257.368 27.416 256.52 27.152 255.4 27.152C254.648 27.152 253.912 27.28 253.192 27.536C252.472 27.776 251.864 28.104 251.368 28.52L250.408 26.792C251.064 26.264 251.848 25.864 252.76 25.592C253.672 25.304 254.64 25.16 255.664 25.16ZM255.136 36.368C256.016 36.368 256.776 36.176 257.416 35.792C258.056 35.392 258.52 34.832 258.808 34.112V32.336H255.256C253.304 32.336 252.328 32.992 252.328 34.304C252.328 34.944 252.576 35.448 253.072 35.816C253.568 36.184 254.256 36.368 255.136 36.368Z" fill="white"/>
<path d="M280.516 55.5794C280.222 58.0996 278.087 60 275.549 60H263V0H281.383C284.374 0 286.696 2.60852 286.349 5.5794L280.516 55.5794Z" fill="#2E363E"/>
<path d="M41.5 60H58.5V112H40.2182C37.1917 112 34.8591 109.332 35.2629 106.333L41.5 60Z" fill="#F2F6FA"/>
<rect width="170" height="52" transform="translate(58.5 60)" fill="#F2F6FA"/>
<path d="M68.2385 85.502C69.1145 85.682 69.7805 86.036 70.2365 86.564C70.6925 87.08 70.9205 87.758 70.9205 88.598C70.9205 89.69 70.5305 90.53 69.7505 91.118C68.9825 91.706 67.8485 92 66.3485 92H60.7685V79.4H66.0065C67.3505 79.4 68.4005 79.676 69.1565 80.228C69.9125 80.78 70.2905 81.578 70.2905 82.622C70.2905 83.33 70.1105 83.93 69.7505 84.422C69.3905 84.902 68.8865 85.262 68.2385 85.502ZM62.0825 85.106H65.9345C66.9065 85.106 67.6505 84.908 68.1665 84.512C68.6945 84.116 68.9585 83.54 68.9585 82.784C68.9585 82.028 68.6945 81.452 68.1665 81.056C67.6505 80.66 66.9065 80.462 65.9345 80.462H62.0825V85.106ZM66.3485 90.938C68.5205 90.938 69.6065 90.128 69.6065 88.508C69.6065 86.924 68.5205 86.132 66.3485 86.132H62.0825V90.938H66.3485ZM83.315 88.634H76.295L74.783 92H73.397L79.157 79.4H80.471L86.231 92H84.827L83.315 88.634ZM82.829 87.554L79.805 80.786L76.781 87.554H82.829ZM105.089 79.4V92H89.6455V79.4H90.9595V90.848H96.7195V79.4H98.0335V90.848H103.775V79.4H105.089ZM120.22 86.222H117.34V92H116.044V79.4H117.34V85.052H120.22L124.486 79.4H125.926L121.246 85.52L126.196 92H124.666L120.22 86.222ZM134.752 92.108C133.504 92.108 132.37 91.832 131.35 91.28C130.342 90.716 129.55 89.948 128.974 88.976C128.41 88.004 128.128 86.912 128.128 85.7C128.128 84.488 128.41 83.396 128.974 82.424C129.55 81.452 130.342 80.69 131.35 80.138C132.37 79.574 133.504 79.292 134.752 79.292C136 79.292 137.122 79.568 138.118 80.12C139.126 80.672 139.918 81.44 140.494 82.424C141.07 83.396 141.358 84.488 141.358 85.7C141.358 86.912 141.07 88.01 140.494 88.994C139.918 89.966 139.126 90.728 138.118 91.28C137.122 91.832 136 92.108 134.752 92.108ZM134.752 90.92C135.748 90.92 136.648 90.698 137.452 90.254C138.256 89.798 138.886 89.174 139.342 88.382C139.798 87.578 140.026 86.684 140.026 85.7C140.026 84.716 139.798 83.828 139.342 83.036C138.886 82.232 138.256 81.608 137.452 81.164C136.648 80.708 135.748 80.48 134.752 80.48C133.756 80.48 132.85 80.708 132.034 81.164C131.23 81.608 130.594 82.232 130.126 83.036C129.67 83.828 129.442 84.716 129.442 85.7C129.442 86.684 129.67 87.578 130.126 88.382C130.594 89.174 131.23 89.798 132.034 90.254C132.85 90.698 133.756 90.92 134.752 90.92ZM156.066 79.4V92H154.752V86.186H146.868V92H145.536V79.4H146.868V85.016H154.752V79.4H156.066ZM172.7 90.848V94.826H171.458V92H160.46L160.442 94.826H159.2L159.218 90.848H159.848C160.676 90.8 161.252 90.146 161.576 88.886C161.9 87.614 162.098 85.814 162.17 83.486L162.314 79.4H170.81V90.848H172.7ZM163.358 83.612C163.298 85.532 163.148 87.116 162.908 88.364C162.68 89.6 162.29 90.428 161.738 90.848H169.496V80.552H163.466L163.358 83.612ZM176.417 79.4H177.731V89.84L185.795 79.4H187.001V92H185.687V81.578L177.623 92H176.417V79.4ZM200.497 80.552H196.069V92H194.755V80.552H190.327V79.4H200.497V80.552ZM212.745 90.848V92H203.835V79.4H212.475V80.552H205.167V85.034H211.683V86.168H205.167V90.848H212.745ZM221.416 79.4C223.024 79.4 224.284 79.784 225.196 80.552C226.108 81.32 226.564 82.376 226.564 83.72C226.564 85.064 226.108 86.12 225.196 86.888C224.284 87.644 223.024 88.022 221.416 88.022H218.032V92H216.7V79.4H221.416ZM221.38 86.852C222.628 86.852 223.582 86.582 224.242 86.042C224.902 85.49 225.232 84.716 225.232 83.72C225.232 82.7 224.902 81.92 224.242 81.38C223.582 80.828 222.628 80.552 221.38 80.552H218.032V86.852H221.38Z" fill="#2E363E"/>
<path d="M246.083 107.667C245.749 110.148 243.632 112 241.128 112H228.5V60H252.5L246.083 107.667Z" fill="#F2F6FA"/>
</svg>
