<svg width="606" height="58" viewBox="0 0 606 58" fill="none" xmlns="http://www.w3.org/2000/svg">
<g clip-path="url(#clip0)">
<path d="M6.05675 13.072C5.22475 13.072 4.47275 12.888 3.80075 12.52C3.13675 12.152 2.61275 11.644 2.22875 10.996C1.85275 10.34 1.66475 9.608 1.66475 8.8C1.66475 7.992 1.85275 7.264 2.22875 6.616C2.61275 5.96 3.14075 5.448 3.81275 5.08C4.48475 4.712 5.23675 4.528 6.06875 4.528C6.69275 4.528 7.26875 4.632 7.79675 4.84C8.32475 5.048 8.77275 5.352 9.14075 5.752L8.57675 6.316C7.92075 5.652 7.09275 5.32 6.09275 5.32C5.42875 5.32 4.82475 5.472 4.28075 5.776C3.73675 6.08 3.30875 6.496 2.99675 7.024C2.69275 7.552 2.54075 8.144 2.54075 8.8C2.54075 9.456 2.69275 10.048 2.99675 10.576C3.30875 11.104 3.73675 11.52 4.28075 11.824C4.82475 12.128 5.42875 12.28 6.09275 12.28C7.10075 12.28 7.92875 11.944 8.57675 11.272L9.14075 11.836C8.77275 12.236 8.32075 12.544 7.78475 12.76C7.25675 12.968 6.68075 13.072 6.05675 13.072ZM13.0933 13.06C12.4853 13.06 11.9373 12.924 11.4493 12.652C10.9613 12.372 10.5773 11.988 10.2973 11.5C10.0173 11.012 9.87734 10.46 9.87734 9.844C9.87734 9.228 10.0173 8.676 10.2973 8.188C10.5773 7.7 10.9613 7.32 11.4493 7.048C11.9373 6.776 12.4853 6.64 13.0933 6.64C13.7013 6.64 14.2493 6.776 14.7373 7.048C15.2253 7.32 15.6053 7.7 15.8773 8.188C16.1573 8.676 16.2973 9.228 16.2973 9.844C16.2973 10.46 16.1573 11.012 15.8773 11.5C15.6053 11.988 15.2253 12.372 14.7373 12.652C14.2493 12.924 13.7013 13.06 13.0933 13.06ZM13.0933 12.304C13.5413 12.304 13.9413 12.204 14.2933 12.004C14.6533 11.796 14.9333 11.504 15.1333 11.128C15.3333 10.752 15.4333 10.324 15.4333 9.844C15.4333 9.364 15.3333 8.936 15.1333 8.56C14.9333 8.184 14.6533 7.896 14.2933 7.696C13.9413 7.488 13.5413 7.384 13.0933 7.384C12.6453 7.384 12.2413 7.488 11.8813 7.696C11.5293 7.896 11.2493 8.184 11.0413 8.56C10.8413 8.936 10.7413 9.364 10.7413 9.844C10.7413 10.324 10.8413 10.752 11.0413 11.128C11.2493 11.504 11.5293 11.796 11.8813 12.004C12.2413 12.204 12.6453 12.304 13.0933 12.304ZM22.5823 7.444H18.9703V13H18.1183V6.688H22.5823V7.444ZM28.5868 6.688V13H27.7348V7.444H24.7108L24.6268 9.004C24.5628 10.316 24.4108 11.324 24.1708 12.028C23.9308 12.732 23.5028 13.084 22.8868 13.084C22.7188 13.084 22.5148 13.052 22.2748 12.988L22.3348 12.256C22.4788 12.288 22.5788 12.304 22.6348 12.304C22.9628 12.304 23.2108 12.152 23.3788 11.848C23.5468 11.544 23.6588 11.168 23.7148 10.72C23.7708 10.272 23.8188 9.68 23.8588 8.944L23.9668 6.688H28.5868ZM33.1809 6.64C34.0049 6.64 34.6369 6.848 35.0769 7.264C35.5169 7.672 35.7369 8.28 35.7369 9.088V13H34.9209V12.016C34.7289 12.344 34.4449 12.6 34.0689 12.784C33.7009 12.968 33.2609 13.06 32.7489 13.06C32.0449 13.06 31.4849 12.892 31.0689 12.556C30.6529 12.22 30.4449 11.776 30.4449 11.224C30.4449 10.688 30.6369 10.256 31.0209 9.928C31.4129 9.6 32.0329 9.436 32.8809 9.436H34.8849V9.052C34.8849 8.508 34.7329 8.096 34.4289 7.816C34.1249 7.528 33.6809 7.384 33.0969 7.384C32.6969 7.384 32.3129 7.452 31.9449 7.588C31.5769 7.716 31.2609 7.896 30.9969 8.128L30.6129 7.492C30.9329 7.22 31.3169 7.012 31.7649 6.868C32.2129 6.716 32.6849 6.64 33.1809 6.64ZM32.8809 12.388C33.3609 12.388 33.7729 12.28 34.1169 12.064C34.4609 11.84 34.7169 11.52 34.8849 11.104V10.072H32.9049C31.8249 10.072 31.2849 10.448 31.2849 11.2C31.2849 11.568 31.4249 11.86 31.7049 12.076C31.9849 12.284 32.3769 12.388 32.8809 12.388ZM40.645 13.06C40.021 13.06 39.461 12.924 38.965 12.652C38.477 12.38 38.093 12 37.813 11.512C37.533 11.016 37.393 10.46 37.393 9.844C37.393 9.228 37.533 8.676 37.813 8.188C38.093 7.7 38.477 7.32 38.965 7.048C39.461 6.776 40.021 6.64 40.645 6.64C41.189 6.64 41.673 6.748 42.097 6.964C42.529 7.172 42.869 7.48 43.117 7.888L42.481 8.32C42.273 8.008 42.009 7.776 41.689 7.624C41.369 7.464 41.021 7.384 40.645 7.384C40.189 7.384 39.777 7.488 39.409 7.696C39.049 7.896 38.765 8.184 38.557 8.56C38.357 8.936 38.257 9.364 38.257 9.844C38.257 10.332 38.357 10.764 38.557 11.14C38.765 11.508 39.049 11.796 39.409 12.004C39.777 12.204 40.189 12.304 40.645 12.304C41.021 12.304 41.369 12.228 41.689 12.076C42.009 11.924 42.273 11.692 42.481 11.38L43.117 11.812C42.869 12.22 42.529 12.532 42.097 12.748C41.665 12.956 41.181 13.06 40.645 13.06ZM44.7667 6.688H45.6187V11.704L49.8307 6.688H50.5867V13H49.7347V7.984L45.5347 13H44.7667V6.688ZM58.5484 10.108H53.2684C53.3164 10.764 53.5684 11.296 54.0244 11.704C54.4804 12.104 55.0564 12.304 55.7524 12.304C56.1444 12.304 56.5044 12.236 56.8324 12.1C57.1604 11.956 57.4444 11.748 57.6844 11.476L58.1644 12.028C57.8844 12.364 57.5324 12.62 57.1084 12.796C56.6924 12.972 56.2324 13.06 55.7284 13.06C55.0804 13.06 54.5044 12.924 54.0004 12.652C53.5044 12.372 53.1164 11.988 52.8364 11.5C52.5564 11.012 52.4164 10.46 52.4164 9.844C52.4164 9.228 52.5484 8.676 52.8124 8.188C53.0844 7.7 53.4524 7.32 53.9164 7.048C54.3884 6.776 54.9164 6.64 55.5004 6.64C56.0844 6.64 56.6084 6.776 57.0724 7.048C57.5364 7.32 57.9004 7.7 58.1644 8.188C58.4284 8.668 58.5604 9.22 58.5604 9.844L58.5484 10.108ZM55.5004 7.372C54.8924 7.372 54.3804 7.568 53.9644 7.96C53.5564 8.344 53.3244 8.848 53.2684 9.472H57.7444C57.6884 8.848 57.4524 8.344 57.0364 7.96C56.6284 7.568 56.1164 7.372 55.5004 7.372ZM63.587 6.688H64.439V9.484H68.411V6.688H69.263V13H68.411V10.216H64.439V13H63.587V6.688ZM73.8567 6.64C74.6807 6.64 75.3127 6.848 75.7527 7.264C76.1927 7.672 76.4127 8.28 76.4127 9.088V13H75.5967V12.016C75.4047 12.344 75.1207 12.6 74.7447 12.784C74.3767 12.968 73.9367 13.06 73.4247 13.06C72.7207 13.06 72.1607 12.892 71.7447 12.556C71.3287 12.22 71.1207 11.776 71.1207 11.224C71.1207 10.688 71.3127 10.256 71.6967 9.928C72.0887 9.6 72.7087 9.436 73.5567 9.436H75.5607V9.052C75.5607 8.508 75.4087 8.096 75.1047 7.816C74.8007 7.528 74.3567 7.384 73.7727 7.384C73.3727 7.384 72.9887 7.452 72.6207 7.588C72.2527 7.716 71.9367 7.896 71.6727 8.128L71.2887 7.492C71.6087 7.22 71.9927 7.012 72.4407 6.868C72.8887 6.716 73.3607 6.64 73.8567 6.64ZM73.5567 12.388C74.0367 12.388 74.4487 12.28 74.7927 12.064C75.1367 11.84 75.3927 11.52 75.5607 11.104V10.072H73.5807C72.5007 10.072 71.9607 10.448 71.9607 11.2C71.9607 11.568 72.1007 11.86 72.3807 12.076C72.6607 12.284 73.0527 12.388 73.5567 12.388ZM84.4254 13.06C83.8174 13.06 83.2694 12.924 82.7814 12.652C82.2934 12.372 81.9094 11.988 81.6294 11.5C81.3494 11.012 81.2094 10.46 81.2094 9.844C81.2094 9.228 81.3494 8.676 81.6294 8.188C81.9094 7.7 82.2934 7.32 82.7814 7.048C83.2694 6.776 83.8174 6.64 84.4254 6.64C85.0334 6.64 85.5814 6.776 86.0694 7.048C86.5574 7.32 86.9374 7.7 87.2094 8.188C87.4894 8.676 87.6294 9.228 87.6294 9.844C87.6294 10.46 87.4894 11.012 87.2094 11.5C86.9374 11.988 86.5574 12.372 86.0694 12.652C85.5814 12.924 85.0334 13.06 84.4254 13.06ZM84.4254 12.304C84.8734 12.304 85.2734 12.204 85.6254 12.004C85.9854 11.796 86.2654 11.504 86.4654 11.128C86.6654 10.752 86.7654 10.324 86.7654 9.844C86.7654 9.364 86.6654 8.936 86.4654 8.56C86.2654 8.184 85.9854 7.896 85.6254 7.696C85.2734 7.488 84.8734 7.384 84.4254 7.384C83.9774 7.384 83.5734 7.488 83.2134 7.696C82.8614 7.896 82.5814 8.184 82.3734 8.56C82.1734 8.936 82.0734 9.364 82.0734 9.844C82.0734 10.324 82.1734 10.752 82.3734 11.128C82.5814 11.504 82.8614 11.796 83.2134 12.004C83.5734 12.204 83.9774 12.304 84.4254 12.304ZM92.5103 6.844C93.0943 6.844 93.6143 6.976 94.0703 7.24C94.5343 7.496 94.8943 7.86 95.1503 8.332C95.4063 8.796 95.5343 9.328 95.5343 9.928C95.5343 10.544 95.3983 11.092 95.1263 11.572C94.8623 12.044 94.4903 12.412 94.0103 12.676C93.5303 12.94 92.9783 13.072 92.3543 13.072C91.3063 13.072 90.4943 12.704 89.9183 11.968C89.3423 11.232 89.0543 10.216 89.0543 8.92C89.0543 7.568 89.3103 6.532 89.8223 5.812C90.3423 5.092 91.1503 4.604 92.2463 4.348L95.0783 3.7L95.2223 4.48L92.5583 5.092C91.6543 5.292 90.9903 5.648 90.5663 6.16C90.1423 6.664 89.9103 7.412 89.8703 8.404C90.1263 7.916 90.4823 7.536 90.9383 7.264C91.3943 6.984 91.9183 6.844 92.5103 6.844ZM92.3783 12.364C92.8183 12.364 93.2103 12.264 93.5543 12.064C93.9063 11.856 94.1783 11.568 94.3703 11.2C94.5703 10.832 94.6703 10.416 94.6703 9.952C94.6703 9.488 94.5743 9.08 94.3823 8.728C94.1903 8.376 93.9183 8.104 93.5663 7.912C93.2223 7.712 92.8263 7.612 92.3783 7.612C91.9303 7.612 91.5303 7.712 91.1783 7.912C90.8343 8.104 90.5623 8.376 90.3623 8.728C90.1703 9.08 90.0743 9.488 90.0743 9.952C90.0743 10.416 90.1703 10.832 90.3623 11.2C90.5623 11.568 90.8383 11.856 91.1903 12.064C91.5423 12.264 91.9383 12.364 92.3783 12.364ZM100.612 6.64C101.204 6.64 101.74 6.776 102.22 7.048C102.7 7.312 103.076 7.688 103.348 8.176C103.62 8.664 103.756 9.22 103.756 9.844C103.756 10.476 103.62 11.036 103.348 11.524C103.076 12.012 102.7 12.392 102.22 12.664C101.748 12.928 101.212 13.06 100.612 13.06C100.1 13.06 99.6364 12.956 99.2204 12.748C98.8124 12.532 98.4764 12.22 98.2124 11.812V15.328H97.3604V6.688H98.1764V7.936C98.4324 7.52 98.7684 7.2 99.1844 6.976C99.6084 6.752 100.084 6.64 100.612 6.64ZM100.552 12.304C100.992 12.304 101.392 12.204 101.752 12.004C102.112 11.796 102.392 11.504 102.592 11.128C102.8 10.752 102.904 10.324 102.904 9.844C102.904 9.364 102.8 8.94 102.592 8.572C102.392 8.196 102.112 7.904 101.752 7.696C101.392 7.488 100.992 7.384 100.552 7.384C100.104 7.384 99.7004 7.488 99.3404 7.696C98.9884 7.904 98.7084 8.196 98.5004 8.572C98.3004 8.94 98.2004 9.364 98.2004 9.844C98.2004 10.324 98.3004 10.752 98.5004 11.128C98.7084 11.504 98.9884 11.796 99.3404 12.004C99.7004 12.204 100.104 12.304 100.552 12.304ZM107.724 6.64C108.548 6.64 109.18 6.848 109.62 7.264C110.06 7.672 110.28 8.28 110.28 9.088V13H109.464V12.016C109.272 12.344 108.988 12.6 108.612 12.784C108.244 12.968 107.804 13.06 107.292 13.06C106.588 13.06 106.028 12.892 105.612 12.556C105.196 12.22 104.988 11.776 104.988 11.224C104.988 10.688 105.18 10.256 105.564 9.928C105.956 9.6 106.576 9.436 107.424 9.436H109.428V9.052C109.428 8.508 109.276 8.096 108.972 7.816C108.668 7.528 108.224 7.384 107.64 7.384C107.24 7.384 106.856 7.452 106.488 7.588C106.12 7.716 105.804 7.896 105.54 8.128L105.156 7.492C105.476 7.22 105.86 7.012 106.308 6.868C106.756 6.716 107.228 6.64 107.724 6.64ZM107.424 12.388C107.904 12.388 108.316 12.28 108.66 12.064C109.004 11.84 109.26 11.52 109.428 11.104V10.072H107.448C106.368 10.072 105.828 10.448 105.828 11.2C105.828 11.568 105.968 11.86 106.248 12.076C106.528 12.284 106.92 12.388 107.424 12.388ZM115.608 6.844C116.192 6.844 116.712 6.976 117.168 7.24C117.632 7.496 117.992 7.86 118.248 8.332C118.504 8.796 118.632 9.328 118.632 9.928C118.632 10.544 118.496 11.092 118.224 11.572C117.96 12.044 117.588 12.412 117.108 12.676C116.628 12.94 116.076 13.072 115.452 13.072C114.404 13.072 113.592 12.704 113.016 11.968C112.44 11.232 112.152 10.216 112.152 8.92C112.152 7.568 112.408 6.532 112.92 5.812C113.44 5.092 114.248 4.604 115.344 4.348L118.176 3.7L118.32 4.48L115.656 5.092C114.752 5.292 114.088 5.648 113.664 6.16C113.24 6.664 113.008 7.412 112.968 8.404C113.224 7.916 113.58 7.536 114.036 7.264C114.492 6.984 115.016 6.844 115.608 6.844ZM115.476 12.364C115.916 12.364 116.308 12.264 116.652 12.064C117.004 11.856 117.276 11.568 117.468 11.2C117.668 10.832 117.768 10.416 117.768 9.952C117.768 9.488 117.672 9.08 117.48 8.728C117.288 8.376 117.016 8.104 116.664 7.912C116.32 7.712 115.924 7.612 115.476 7.612C115.028 7.612 114.628 7.712 114.276 7.912C113.932 8.104 113.66 8.376 113.46 8.728C113.268 9.08 113.172 9.488 113.172 9.952C113.172 10.416 113.268 10.832 113.46 11.2C113.66 11.568 113.936 11.856 114.288 12.064C114.64 12.264 115.036 12.364 115.476 12.364ZM123.062 13.06C122.454 13.06 121.906 12.924 121.418 12.652C120.93 12.372 120.546 11.988 120.266 11.5C119.986 11.012 119.846 10.46 119.846 9.844C119.846 9.228 119.986 8.676 120.266 8.188C120.546 7.7 120.93 7.32 121.418 7.048C121.906 6.776 122.454 6.64 123.062 6.64C123.67 6.64 124.218 6.776 124.706 7.048C125.194 7.32 125.574 7.7 125.846 8.188C126.126 8.676 126.266 9.228 126.266 9.844C126.266 10.46 126.126 11.012 125.846 11.5C125.574 11.988 125.194 12.372 124.706 12.652C124.218 12.924 123.67 13.06 123.062 13.06ZM123.062 12.304C123.51 12.304 123.91 12.204 124.262 12.004C124.622 11.796 124.902 11.504 125.102 11.128C125.302 10.752 125.402 10.324 125.402 9.844C125.402 9.364 125.302 8.936 125.102 8.56C124.902 8.184 124.622 7.896 124.262 7.696C123.91 7.488 123.51 7.384 123.062 7.384C122.614 7.384 122.21 7.488 121.85 7.696C121.498 7.896 121.218 8.184 121.01 8.56C120.81 8.936 120.71 9.364 120.71 9.844C120.71 10.324 120.81 10.752 121.01 11.128C121.218 11.504 121.498 11.796 121.85 12.004C122.21 12.204 122.614 12.304 123.062 12.304ZM132.293 7.444H129.905V13H129.053V7.444H126.665V6.688H132.293V7.444ZM135.817 10.192H134.377V13H133.525V6.688H134.377V9.46H135.829L138.049 6.688H138.973L136.489 9.748L139.153 13H138.145L135.817 10.192ZM145.498 6.688L142.342 13.756C142.086 14.348 141.79 14.768 141.454 15.016C141.118 15.264 140.714 15.388 140.242 15.388C139.938 15.388 139.654 15.34 139.39 15.244C139.126 15.148 138.898 15.004 138.706 14.812L139.102 14.176C139.422 14.496 139.806 14.656 140.254 14.656C140.542 14.656 140.786 14.576 140.986 14.416C141.194 14.256 141.386 13.984 141.562 13.6L141.838 12.988L139.018 6.688H139.906L142.282 12.052L144.658 6.688H145.498ZM156.122 12.256V14.524H155.318V13H149.666V14.524H148.862V12.256H149.222C149.646 12.232 149.934 11.92 150.086 11.32C150.238 10.72 150.342 9.88 150.398 8.8L150.482 6.688H155.138V12.256H156.122ZM151.178 8.848C151.138 9.744 151.062 10.484 150.95 11.068C150.838 11.644 150.638 12.04 150.35 12.256H154.286V7.444H151.25L151.178 8.848ZM159.954 6.64C160.778 6.64 161.41 6.848 161.85 7.264C162.29 7.672 162.51 8.28 162.51 9.088V13H161.694V12.016C161.502 12.344 161.218 12.6 160.842 12.784C160.474 12.968 160.034 13.06 159.522 13.06C158.818 13.06 158.258 12.892 157.842 12.556C157.426 12.22 157.218 11.776 157.218 11.224C157.218 10.688 157.41 10.256 157.794 9.928C158.186 9.6 158.806 9.436 159.654 9.436H161.658V9.052C161.658 8.508 161.506 8.096 161.202 7.816C160.898 7.528 160.454 7.384 159.87 7.384C159.47 7.384 159.086 7.452 158.718 7.588C158.35 7.716 158.034 7.896 157.77 8.128L157.386 7.492C157.706 7.22 158.09 7.012 158.538 6.868C158.986 6.716 159.458 6.64 159.954 6.64ZM159.654 12.388C160.134 12.388 160.546 12.28 160.89 12.064C161.234 11.84 161.49 11.52 161.658 11.104V10.072H159.678C158.598 10.072 158.058 10.448 158.058 11.2C158.058 11.568 158.198 11.86 158.478 12.076C158.758 12.284 159.15 12.388 159.654 12.388ZM164.778 6.688H165.63V9.484H169.602V6.688H170.454V13H169.602V10.216H165.63V13H164.778V6.688ZM172.876 6.688H173.728V9.484H177.7V6.688H178.552V13H177.7V10.216H173.728V13H172.876V6.688ZM183.626 8.92C184.418 8.928 185.022 9.104 185.438 9.448C185.854 9.792 186.062 10.288 186.062 10.936C186.062 11.608 185.838 12.124 185.39 12.484C184.942 12.844 184.302 13.02 183.47 13.012L180.974 13V6.688H181.826V8.896L183.626 8.92ZM187.118 6.688H187.97V13H187.118V6.688ZM183.422 12.364C184.006 12.372 184.446 12.256 184.742 12.016C185.046 11.768 185.198 11.408 185.198 10.936C185.198 10.472 185.05 10.128 184.754 9.904C184.458 9.68 184.014 9.564 183.422 9.556L181.826 9.532V12.34L183.422 12.364ZM194.344 13L192.34 10.36L190.324 13H189.364L191.86 9.76L189.484 6.688H190.444L192.34 9.16L194.236 6.688H195.172L192.796 9.76L195.316 13H194.344Z" fill="#7E868E"/>
<path d="M243.615 13.072C242.783 13.072 242.031 12.888 241.359 12.52C240.695 12.152 240.171 11.644 239.787 10.996C239.411 10.34 239.223 9.608 239.223 8.8C239.223 7.992 239.411 7.264 239.787 6.616C240.171 5.96 240.699 5.448 241.371 5.08C242.043 4.712 242.795 4.528 243.627 4.528C244.251 4.528 244.827 4.632 245.355 4.84C245.883 5.048 246.331 5.352 246.699 5.752L246.135 6.316C245.479 5.652 244.651 5.32 243.651 5.32C242.987 5.32 242.383 5.472 241.839 5.776C241.295 6.08 240.867 6.496 240.555 7.024C240.251 7.552 240.099 8.144 240.099 8.8C240.099 9.456 240.251 10.048 240.555 10.576C240.867 11.104 241.295 11.52 241.839 11.824C242.383 12.128 242.987 12.28 243.651 12.28C244.659 12.28 245.487 11.944 246.135 11.272L246.699 11.836C246.331 12.236 245.879 12.544 245.343 12.76C244.815 12.968 244.239 13.072 243.615 13.072ZM253.185 6.688V13H252.333V7.444H249.309L249.225 9.004C249.161 10.316 249.009 11.324 248.769 12.028C248.529 12.732 248.101 13.084 247.485 13.084C247.317 13.084 247.113 13.052 246.873 12.988L246.933 12.256C247.077 12.288 247.177 12.304 247.233 12.304C247.561 12.304 247.809 12.152 247.977 11.848C248.145 11.544 248.257 11.168 248.312 10.72C248.368 10.272 248.417 9.68 248.457 8.944L248.565 6.688H253.185ZM260.971 6.688L257.815 13.756C257.559 14.348 257.263 14.768 256.927 15.016C256.591 15.264 256.187 15.388 255.715 15.388C255.411 15.388 255.127 15.34 254.863 15.244C254.599 15.148 254.371 15.004 254.179 14.812L254.575 14.176C254.895 14.496 255.279 14.656 255.727 14.656C256.015 14.656 256.259 14.576 256.459 14.416C256.667 14.256 256.859 13.984 257.035 13.6L257.311 12.988L254.491 6.688H255.379L257.755 12.052L260.131 6.688H260.971ZM267.467 10.192H266.099V13H265.247V10.192H263.879L261.947 13H260.927L263.195 9.748L261.107 6.688H262.031L263.879 9.46H265.247V6.688H266.099V9.46H267.467L269.327 6.688H270.251L268.163 9.76L270.431 13H269.411L267.467 10.192ZM274.85 6.844C275.434 6.844 275.954 6.976 276.41 7.24C276.874 7.496 277.234 7.86 277.49 8.332C277.746 8.796 277.874 9.328 277.874 9.928C277.874 10.544 277.738 11.092 277.466 11.572C277.202 12.044 276.83 12.412 276.35 12.676C275.87 12.94 275.318 13.072 274.694 13.072C273.646 13.072 272.834 12.704 272.258 11.968C271.682 11.232 271.394 10.216 271.394 8.92C271.394 7.568 271.65 6.532 272.162 5.812C272.682 5.092 273.49 4.604 274.586 4.348L277.418 3.7L277.562 4.48L274.898 5.092C273.994 5.292 273.33 5.648 272.906 6.16C272.482 6.664 272.25 7.412 272.21 8.404C272.466 7.916 272.822 7.536 273.278 7.264C273.734 6.984 274.258 6.844 274.85 6.844ZM274.718 12.364C275.158 12.364 275.55 12.264 275.894 12.064C276.246 11.856 276.518 11.568 276.71 11.2C276.91 10.832 277.01 10.416 277.01 9.952C277.01 9.488 276.914 9.08 276.722 8.728C276.53 8.376 276.258 8.104 275.906 7.912C275.562 7.712 275.166 7.612 274.718 7.612C274.27 7.612 273.87 7.712 273.518 7.912C273.174 8.104 272.902 8.376 272.702 8.728C272.51 9.08 272.414 9.488 272.414 9.952C272.414 10.416 272.51 10.832 272.702 11.2C272.902 11.568 273.178 11.856 273.53 12.064C273.882 12.264 274.278 12.364 274.718 12.364ZM281.837 6.64C282.661 6.64 283.293 6.848 283.733 7.264C284.173 7.672 284.393 8.28 284.393 9.088V13H283.577V12.016C283.385 12.344 283.101 12.6 282.725 12.784C282.357 12.968 281.917 13.06 281.405 13.06C280.701 13.06 280.141 12.892 279.725 12.556C279.309 12.22 279.101 11.776 279.101 11.224C279.101 10.688 279.293 10.256 279.677 9.928C280.069 9.6 280.689 9.436 281.537 9.436H283.541V9.052C283.541 8.508 283.389 8.096 283.085 7.816C282.781 7.528 282.337 7.384 281.753 7.384C281.353 7.384 280.969 7.452 280.601 7.588C280.233 7.716 279.917 7.896 279.653 8.128L279.269 7.492C279.589 7.22 279.973 7.012 280.421 6.868C280.869 6.716 281.341 6.64 281.837 6.64ZM281.537 12.388C282.017 12.388 282.429 12.28 282.773 12.064C283.117 11.84 283.373 11.52 283.541 11.104V10.072H281.561C280.481 10.072 279.941 10.448 279.941 11.2C279.941 11.568 280.081 11.86 280.361 12.076C280.641 12.284 281.033 12.388 281.537 12.388ZM295.466 6.688V13H294.614V7.444H290.654V13H289.802V6.688H295.466ZM300.492 13.06C299.884 13.06 299.336 12.924 298.848 12.652C298.36 12.372 297.976 11.988 297.696 11.5C297.416 11.012 297.276 10.46 297.276 9.844C297.276 9.228 297.416 8.676 297.696 8.188C297.976 7.7 298.36 7.32 298.848 7.048C299.336 6.776 299.884 6.64 300.492 6.64C301.1 6.64 301.648 6.776 302.136 7.048C302.624 7.32 303.004 7.7 303.276 8.188C303.556 8.676 303.696 9.228 303.696 9.844C303.696 10.46 303.556 11.012 303.276 11.5C303.004 11.988 302.624 12.372 302.136 12.652C301.648 12.924 301.1 13.06 300.492 13.06ZM300.492 12.304C300.94 12.304 301.34 12.204 301.692 12.004C302.052 11.796 302.332 11.504 302.532 11.128C302.732 10.752 302.832 10.324 302.832 9.844C302.832 9.364 302.732 8.936 302.532 8.56C302.332 8.184 302.052 7.896 301.692 7.696C301.34 7.488 300.94 7.384 300.492 7.384C300.044 7.384 299.64 7.488 299.28 7.696C298.928 7.896 298.648 8.184 298.44 8.56C298.24 8.936 298.14 9.364 298.14 9.844C298.14 10.324 298.24 10.752 298.44 11.128C298.648 11.504 298.928 11.796 299.28 12.004C299.64 12.204 300.044 12.304 300.492 12.304ZM311.638 12.256V14.524H310.834V13H305.182V14.524H304.378V12.256H304.738C305.162 12.232 305.45 11.92 305.602 11.32C305.754 10.72 305.858 9.88 305.914 8.8L305.998 6.688H310.654V12.256H311.638ZM306.694 8.848C306.654 9.744 306.578 10.484 306.466 11.068C306.354 11.644 306.154 12.04 305.866 12.256H309.802V7.444H306.766L306.694 8.848ZM319.454 12.256V14.524H318.65V13H312.998V14.524H312.194V12.256H312.554C312.978 12.232 313.266 11.92 313.418 11.32C313.57 10.72 313.674 9.88 313.73 8.8L313.814 6.688H318.47V12.256H319.454ZM314.51 8.848C314.47 9.744 314.394 10.484 314.282 11.068C314.17 11.644 313.97 12.04 313.682 12.256H317.618V7.444H314.582L314.51 8.848ZM326.634 10.108H321.354C321.402 10.764 321.654 11.296 322.11 11.704C322.566 12.104 323.142 12.304 323.838 12.304C324.23 12.304 324.59 12.236 324.918 12.1C325.246 11.956 325.53 11.748 325.77 11.476L326.25 12.028C325.97 12.364 325.618 12.62 325.194 12.796C324.778 12.972 324.318 13.06 323.814 13.06C323.166 13.06 322.59 12.924 322.086 12.652C321.59 12.372 321.202 11.988 320.922 11.5C320.642 11.012 320.502 10.46 320.502 9.844C320.502 9.228 320.634 8.676 320.898 8.188C321.17 7.7 321.538 7.32 322.002 7.048C322.474 6.776 323.002 6.64 323.586 6.64C324.17 6.64 324.694 6.776 325.158 7.048C325.622 7.32 325.986 7.7 326.25 8.188C326.514 8.668 326.646 9.22 326.646 9.844L326.634 10.108ZM323.586 7.372C322.978 7.372 322.466 7.568 322.05 7.96C321.642 8.344 321.41 8.848 321.354 9.472H325.83C325.774 8.848 325.538 8.344 325.122 7.96C324.714 7.568 324.202 7.372 323.586 7.372ZM331.784 6.64C332.376 6.64 332.912 6.776 333.392 7.048C333.872 7.312 334.248 7.688 334.52 8.176C334.792 8.664 334.928 9.22 334.928 9.844C334.928 10.476 334.792 11.036 334.52 11.524C334.248 12.012 333.872 12.392 333.392 12.664C332.92 12.928 332.384 13.06 331.784 13.06C331.272 13.06 330.808 12.956 330.392 12.748C329.984 12.532 329.648 12.22 329.384 11.812V15.328H328.532V6.688H329.348V7.936C329.604 7.52 329.94 7.2 330.356 6.976C330.78 6.752 331.256 6.64 331.784 6.64ZM331.724 12.304C332.164 12.304 332.564 12.204 332.924 12.004C333.284 11.796 333.564 11.504 333.764 11.128C333.972 10.752 334.076 10.324 334.076 9.844C334.076 9.364 333.972 8.94 333.764 8.572C333.564 8.196 333.284 7.904 332.924 7.696C332.564 7.488 332.164 7.384 331.724 7.384C331.276 7.384 330.872 7.488 330.512 7.696C330.16 7.904 329.88 8.196 329.672 8.572C329.472 8.94 329.372 9.364 329.372 9.844C329.372 10.324 329.472 10.752 329.672 11.128C329.88 11.504 330.16 11.796 330.512 12.004C330.872 12.204 331.276 12.304 331.724 12.304ZM342.068 10.192H340.7V13H339.848V10.192H338.48L336.548 13H335.528L337.796 9.748L335.708 6.688H336.632L338.48 9.46H339.848V6.688H340.7V9.46H342.068L343.928 6.688H344.852L342.764 9.76L345.032 13H344.012L342.068 10.192ZM348.742 10.192H347.302V13H346.45V6.688H347.302V9.46H348.754L350.974 6.688H351.898L349.414 9.748L352.078 13H351.07L348.742 10.192ZM353.423 6.688H354.275V11.704L358.487 6.688H359.243V13H358.391V7.984L354.191 13H353.423V6.688Z" fill="#7E868E"/>
<path d="M411.984 4.6V13H411.108V5.368H405.792V13H404.916V4.6H411.984ZM417.218 13.06C416.61 13.06 416.062 12.924 415.574 12.652C415.086 12.372 414.702 11.988 414.422 11.5C414.142 11.012 414.002 10.46 414.002 9.844C414.002 9.228 414.142 8.676 414.422 8.188C414.702 7.7 415.086 7.32 415.574 7.048C416.062 6.776 416.61 6.64 417.218 6.64C417.826 6.64 418.374 6.776 418.862 7.048C419.35 7.32 419.73 7.7 420.002 8.188C420.282 8.676 420.422 9.228 420.422 9.844C420.422 10.46 420.282 11.012 420.002 11.5C419.73 11.988 419.35 12.372 418.862 12.652C418.374 12.924 417.826 13.06 417.218 13.06ZM417.218 12.304C417.666 12.304 418.066 12.204 418.418 12.004C418.778 11.796 419.058 11.504 419.258 11.128C419.458 10.752 419.558 10.324 419.558 9.844C419.558 9.364 419.458 8.936 419.258 8.56C419.058 8.184 418.778 7.896 418.418 7.696C418.066 7.488 417.666 7.384 417.218 7.384C416.77 7.384 416.366 7.488 416.006 7.696C415.654 7.896 415.374 8.184 415.166 8.56C414.966 8.936 414.866 9.364 414.866 9.844C414.866 10.324 414.966 10.752 415.166 11.128C415.374 11.504 415.654 11.796 416.006 12.004C416.366 12.204 416.77 12.304 417.218 12.304ZM427.368 6.688V13H426.516V7.444H423.492L423.408 9.004C423.344 10.316 423.192 11.324 422.952 12.028C422.712 12.732 422.284 13.084 421.668 13.084C421.5 13.084 421.296 13.052 421.056 12.988L421.116 12.256C421.26 12.288 421.36 12.304 421.416 12.304C421.744 12.304 421.992 12.152 422.16 11.848C422.328 11.544 422.44 11.168 422.496 10.72C422.552 10.272 422.6 9.68 422.64 8.944L422.748 6.688H427.368ZM429.79 6.688H430.642V11.704L434.854 6.688H435.61V13H434.758V7.984L430.558 13H429.79V6.688ZM442.492 7.444H440.104V13H439.252V7.444H436.864V6.688H442.492V7.444ZM443.724 6.688H444.576V11.704L448.788 6.688H449.544V13H448.692V7.984L444.492 13H443.724V6.688ZM454.277 10.192H452.837V13H451.985V6.688H452.837V9.46H454.289L456.509 6.688H457.433L454.949 9.748L457.613 13H456.605L454.277 10.192ZM461.013 6.64C461.837 6.64 462.469 6.848 462.909 7.264C463.349 7.672 463.569 8.28 463.569 9.088V13H462.753V12.016C462.561 12.344 462.277 12.6 461.901 12.784C461.533 12.968 461.093 13.06 460.581 13.06C459.877 13.06 459.317 12.892 458.901 12.556C458.485 12.22 458.277 11.776 458.277 11.224C458.277 10.688 458.469 10.256 458.853 9.928C459.245 9.6 459.865 9.436 460.713 9.436H462.717V9.052C462.717 8.508 462.565 8.096 462.261 7.816C461.957 7.528 461.513 7.384 460.929 7.384C460.529 7.384 460.145 7.452 459.777 7.588C459.409 7.716 459.093 7.896 458.829 8.128L458.445 7.492C458.765 7.22 459.149 7.012 459.597 6.868C460.045 6.716 460.517 6.64 461.013 6.64ZM460.713 12.388C461.193 12.388 461.605 12.28 461.949 12.064C462.293 11.84 462.549 11.52 462.717 11.104V10.072H460.737C459.657 10.072 459.117 10.448 459.117 11.2C459.117 11.568 459.257 11.86 459.537 12.076C459.817 12.284 460.209 12.388 460.713 12.388ZM471.27 10.192H469.83V13H468.978V6.688H469.83V9.46H471.282L473.502 6.688H474.426L471.942 9.748L474.606 13H473.598L471.27 10.192ZM478.332 13.06C477.724 13.06 477.176 12.924 476.688 12.652C476.2 12.372 475.816 11.988 475.536 11.5C475.256 11.012 475.116 10.46 475.116 9.844C475.116 9.228 475.256 8.676 475.536 8.188C475.816 7.7 476.2 7.32 476.688 7.048C477.176 6.776 477.724 6.64 478.332 6.64C478.94 6.64 479.488 6.776 479.976 7.048C480.464 7.32 480.844 7.7 481.116 8.188C481.396 8.676 481.536 9.228 481.536 9.844C481.536 10.46 481.396 11.012 481.116 11.5C480.844 11.988 480.464 12.372 479.976 12.652C479.488 12.924 478.94 13.06 478.332 13.06ZM478.332 12.304C478.78 12.304 479.18 12.204 479.532 12.004C479.892 11.796 480.172 11.504 480.372 11.128C480.572 10.752 480.672 10.324 480.672 9.844C480.672 9.364 480.572 8.936 480.372 8.56C480.172 8.184 479.892 7.896 479.532 7.696C479.18 7.488 478.78 7.384 478.332 7.384C477.884 7.384 477.48 7.488 477.12 7.696C476.768 7.896 476.488 8.184 476.28 8.56C476.08 8.936 475.98 9.364 475.98 9.844C475.98 10.324 476.08 10.752 476.28 11.128C476.488 11.504 476.768 11.796 477.12 12.004C477.48 12.204 477.884 12.304 478.332 12.304ZM483.357 6.688H484.209V9.484H488.181V6.688H489.033V13H488.181V10.216H484.209V13H483.357V6.688ZM499.074 9.832C499.074 10.816 498.75 11.588 498.102 12.148C497.454 12.708 496.538 13.012 495.354 13.06V15.328H494.526V13.072C493.35 13.024 492.438 12.72 491.79 12.16C491.15 11.592 490.83 10.816 490.83 9.832C490.83 8.856 491.15 8.092 491.79 7.54C492.438 6.988 493.35 6.688 494.526 6.64V4.096H495.354V6.64C496.538 6.696 497.454 7 498.102 7.552C498.75 8.104 499.074 8.864 499.074 9.832ZM491.67 9.832C491.67 10.584 491.91 11.172 492.39 11.596C492.878 12.02 493.59 12.26 494.526 12.316V7.396C493.598 7.444 492.89 7.68 492.402 8.104C491.914 8.52 491.67 9.096 491.67 9.832ZM495.354 12.316C496.29 12.268 497.002 12.032 497.49 11.608C497.986 11.184 498.234 10.592 498.234 9.832C498.234 9.088 497.986 8.508 497.49 8.092C497.002 7.676 496.29 7.444 495.354 7.396V12.316ZM500.876 6.688H501.728V11.704L505.94 6.688H506.696V13H505.844V7.984L501.644 13H500.876V6.688ZM515.294 12.256V14.524H514.49V13H508.838V14.524H508.034V12.256H508.394C508.818 12.232 509.106 11.92 509.258 11.32C509.41 10.72 509.514 9.88 509.57 8.8L509.654 6.688H514.31V12.256H515.294ZM510.35 8.848C510.31 9.744 510.234 10.484 510.122 11.068C510.01 11.644 509.81 12.04 509.522 12.256H513.458V7.444H510.422L510.35 8.848ZM522.474 10.108H517.194C517.242 10.764 517.494 11.296 517.95 11.704C518.406 12.104 518.982 12.304 519.678 12.304C520.07 12.304 520.43 12.236 520.758 12.1C521.086 11.956 521.37 11.748 521.61 11.476L522.09 12.028C521.81 12.364 521.458 12.62 521.034 12.796C520.618 12.972 520.158 13.06 519.654 13.06C519.006 13.06 518.43 12.924 517.926 12.652C517.43 12.372 517.042 11.988 516.762 11.5C516.482 11.012 516.342 10.46 516.342 9.844C516.342 9.228 516.474 8.676 516.738 8.188C517.01 7.7 517.378 7.32 517.842 7.048C518.314 6.776 518.842 6.64 519.426 6.64C520.01 6.64 520.534 6.776 520.998 7.048C521.462 7.32 521.826 7.7 522.09 8.188C522.354 8.668 522.486 9.22 522.486 9.844L522.474 10.108ZM519.426 7.372C518.818 7.372 518.306 7.568 517.89 7.96C517.482 8.344 517.25 8.848 517.194 9.472H521.67C521.614 8.848 521.378 8.344 520.962 7.96C520.554 7.568 520.042 7.372 519.426 7.372ZM524.372 6.688H525.224V9.484H529.196V6.688H530.048V13H529.196V10.216H525.224V13H524.372V6.688ZM539.046 12.256V14.584H538.242V13H532.47V6.688H533.322V12.256H537.174V6.688H538.026V12.256H539.046ZM540.673 6.688H541.525V11.704L545.737 6.688H546.493V13H545.641V7.984L541.441 13H540.673V6.688ZM551.107 6.64C551.931 6.64 552.563 6.848 553.003 7.264C553.443 7.672 553.663 8.28 553.663 9.088V13H552.847V12.016C552.655 12.344 552.371 12.6 551.995 12.784C551.627 12.968 551.187 13.06 550.675 13.06C549.971 13.06 549.411 12.892 548.995 12.556C548.579 12.22 548.371 11.776 548.371 11.224C548.371 10.688 548.563 10.256 548.947 9.928C549.339 9.6 549.959 9.436 550.807 9.436H552.811V9.052C552.811 8.508 552.659 8.096 552.355 7.816C552.051 7.528 551.607 7.384 551.023 7.384C550.623 7.384 550.239 7.452 549.871 7.588C549.503 7.716 549.187 7.896 548.923 8.128L548.539 7.492C548.859 7.22 549.243 7.012 549.691 6.868C550.139 6.716 550.611 6.64 551.107 6.64ZM550.807 12.388C551.287 12.388 551.699 12.28 552.043 12.064C552.387 11.84 552.643 11.52 552.811 11.104V10.072H550.831C549.751 10.072 549.211 10.448 549.211 11.2C549.211 11.568 549.351 11.86 549.631 12.076C549.911 12.284 550.303 12.388 550.807 12.388ZM561.091 6.688V13H560.239V7.444H557.215L557.131 9.004C557.067 10.316 556.915 11.324 556.675 12.028C556.435 12.732 556.007 13.084 555.391 13.084C555.223 13.084 555.019 13.052 554.779 12.988L554.839 12.256C554.983 12.288 555.083 12.304 555.139 12.304C555.467 12.304 555.715 12.152 555.883 11.848C556.051 11.544 556.163 11.168 556.219 10.72C556.275 10.272 556.323 9.68 556.363 8.944L556.471 6.688H561.091ZM566.225 8.92C567.017 8.928 567.617 9.104 568.025 9.448C568.441 9.792 568.649 10.288 568.649 10.936C568.649 11.608 568.425 12.124 567.977 12.484C567.537 12.844 566.897 13.02 566.057 13.012L563.513 13V6.688H564.365V8.896L566.225 8.92ZM566.009 12.364C566.593 12.372 567.033 12.256 567.329 12.016C567.633 11.768 567.785 11.408 567.785 10.936C567.785 10.472 567.637 10.128 567.341 9.904C567.045 9.68 566.601 9.564 566.009 9.556L564.365 9.532V12.34L566.009 12.364ZM570.275 6.688H571.127V9.484H575.099V6.688H575.951V13H575.099V10.216H571.127V13H570.275V6.688ZM580.976 13.06C580.368 13.06 579.82 12.924 579.332 12.652C578.844 12.372 578.46 11.988 578.18 11.5C577.9 11.012 577.76 10.46 577.76 9.844C577.76 9.228 577.9 8.676 578.18 8.188C578.46 7.7 578.844 7.32 579.332 7.048C579.82 6.776 580.368 6.64 580.976 6.64C581.584 6.64 582.132 6.776 582.62 7.048C583.108 7.32 583.488 7.7 583.76 8.188C584.04 8.676 584.18 9.228 584.18 9.844C584.18 10.46 584.04 11.012 583.76 11.5C583.488 11.988 583.108 12.372 582.62 12.652C582.132 12.924 581.584 13.06 580.976 13.06ZM580.976 12.304C581.424 12.304 581.824 12.204 582.176 12.004C582.536 11.796 582.816 11.504 583.016 11.128C583.216 10.752 583.316 10.324 583.316 9.844C583.316 9.364 583.216 8.936 583.016 8.56C582.816 8.184 582.536 7.896 582.176 7.696C581.824 7.488 581.424 7.384 580.976 7.384C580.528 7.384 580.124 7.488 579.764 7.696C579.412 7.896 579.132 8.184 578.924 8.56C578.724 8.936 578.624 9.364 578.624 9.844C578.624 10.324 578.724 10.752 578.924 11.128C579.132 11.504 579.412 11.796 579.764 12.004C580.124 12.204 580.528 12.304 580.976 12.304ZM588.641 13.06C588.017 13.06 587.457 12.924 586.961 12.652C586.473 12.38 586.089 12 585.809 11.512C585.529 11.016 585.389 10.46 585.389 9.844C585.389 9.228 585.529 8.676 585.809 8.188C586.089 7.7 586.473 7.32 586.961 7.048C587.457 6.776 588.017 6.64 588.641 6.64C589.185 6.64 589.669 6.748 590.093 6.964C590.525 7.172 590.865 7.48 591.113 7.888L590.477 8.32C590.269 8.008 590.005 7.776 589.685 7.624C589.365 7.464 589.017 7.384 588.641 7.384C588.185 7.384 587.773 7.488 587.405 7.696C587.045 7.896 586.761 8.184 586.553 8.56C586.353 8.936 586.253 9.364 586.253 9.844C586.253 10.332 586.353 10.764 586.553 11.14C586.761 11.508 587.045 11.796 587.405 12.004C587.773 12.204 588.185 12.304 588.641 12.304C589.017 12.304 589.365 12.228 589.685 12.076C590.005 11.924 590.269 11.692 590.477 11.38L591.113 11.812C590.865 12.22 590.525 12.532 590.093 12.748C589.661 12.956 589.177 13.06 588.641 13.06ZM597.086 7.444H594.698V13H593.846V7.444H591.458V6.688H597.086V7.444ZM598.317 6.688H599.169V11.704L603.381 6.688H604.137V13H603.285V7.984L599.085 13H598.317V6.688Z" fill="#7E868E"/>
<path d="M69.0785 53.036C68.2945 53.036 67.5785 52.848 66.9305 52.472C66.2905 52.096 65.7825 51.584 65.4065 50.936C65.0385 50.288 64.8545 49.576 64.8545 48.8C64.8545 48.024 65.0385 47.312 65.4065 46.664C65.7825 46.016 66.2945 45.504 66.9425 45.128C67.5905 44.752 68.3105 44.564 69.1025 44.564C69.8945 44.564 70.6105 44.748 71.2505 45.116C71.8985 45.484 72.4065 45.992 72.7745 46.64C73.1425 47.28 73.3265 47.992 73.3265 48.776C73.3265 49.56 73.1385 50.28 72.7625 50.936C72.3865 51.584 71.8745 52.096 71.2265 52.472C70.5785 52.848 69.8625 53.036 69.0785 53.036ZM69.0785 52.592C69.7825 52.592 70.4225 52.424 70.9985 52.088C71.5745 51.744 72.0305 51.284 72.3665 50.708C72.7025 50.124 72.8705 49.48 72.8705 48.776C72.8705 48.072 72.7065 47.436 72.3785 46.868C72.0505 46.292 71.5985 45.84 71.0225 45.512C70.4545 45.176 69.8145 45.008 69.1025 45.008C68.3905 45.008 67.7425 45.176 67.1585 45.512C66.5825 45.848 66.1265 46.308 65.7905 46.892C65.4625 47.468 65.2985 48.104 65.2985 48.8C65.2985 49.496 65.4625 50.136 65.7905 50.72C66.1265 51.296 66.5825 51.752 67.1585 52.088C67.7345 52.424 68.3745 52.592 69.0785 52.592ZM69.1865 51.296C68.7145 51.296 68.2865 51.192 67.9025 50.984C67.5265 50.768 67.2305 50.472 67.0145 50.096C66.7985 49.712 66.6905 49.28 66.6905 48.8C66.6905 48.32 66.7985 47.892 67.0145 47.516C67.2305 47.132 67.5265 46.836 67.9025 46.628C68.2865 46.412 68.7145 46.304 69.1865 46.304C69.5945 46.304 69.9625 46.388 70.2905 46.556C70.6265 46.716 70.8945 46.94 71.0945 47.228L70.5785 47.612C70.4105 47.38 70.2065 47.208 69.9665 47.096C69.7265 46.984 69.4625 46.928 69.1745 46.928C68.6545 46.928 68.2225 47.1 67.8785 47.444C67.5425 47.788 67.3745 48.24 67.3745 48.8C67.3745 49.36 67.5425 49.812 67.8785 50.156C68.2225 50.5 68.6545 50.672 69.1745 50.672C69.4625 50.672 69.7265 50.616 69.9665 50.504C70.2065 50.392 70.4105 50.22 70.5785 49.988L71.0945 50.36C70.8945 50.656 70.6265 50.888 70.2905 51.056C69.9625 51.216 69.5945 51.296 69.1865 51.296ZM81.4782 46.64C82.2702 46.64 82.8982 46.872 83.3622 47.336C83.8342 47.792 84.0702 48.46 84.0702 49.34V53H83.2182V49.424C83.2182 48.768 83.0542 48.268 82.7262 47.924C82.3982 47.58 81.9302 47.408 81.3222 47.408C80.6422 47.408 80.1022 47.612 79.7022 48.02C79.3102 48.42 79.1142 48.976 79.1142 49.688V53H78.2622V46.688H79.0782V47.852C79.3102 47.468 79.6302 47.172 80.0382 46.964C80.4542 46.748 80.9342 46.64 81.4782 46.64ZM88.5913 46.64C89.4153 46.64 90.0473 46.848 90.4873 47.264C90.9273 47.672 91.1473 48.28 91.1473 49.088V53H90.3313V52.016C90.1393 52.344 89.8553 52.6 89.4793 52.784C89.1113 52.968 88.6713 53.06 88.1593 53.06C87.4553 53.06 86.8953 52.892 86.4793 52.556C86.0633 52.22 85.8553 51.776 85.8553 51.224C85.8553 50.688 86.0473 50.256 86.4313 49.928C86.8233 49.6 87.4433 49.436 88.2913 49.436H90.2953V49.052C90.2953 48.508 90.1433 48.096 89.8393 47.816C89.5353 47.528 89.0913 47.384 88.5073 47.384C88.1073 47.384 87.7233 47.452 87.3553 47.588C86.9873 47.716 86.6713 47.896 86.4073 48.128L86.0233 47.492C86.3433 47.22 86.7273 47.012 87.1753 46.868C87.6233 46.716 88.0953 46.64 88.5913 46.64ZM88.2913 52.388C88.7713 52.388 89.1833 52.28 89.5273 52.064C89.8713 51.84 90.1273 51.52 90.2953 51.104V50.072H88.3153C87.2353 50.072 86.6953 50.448 86.6953 51.2C86.6953 51.568 86.8353 51.86 87.1153 52.076C87.3953 52.284 87.7873 52.388 88.2913 52.388ZM97.9134 52.292V53H92.7774V52.436L96.7494 47.408H92.8494V46.688H97.8414V47.252L93.8694 52.292H97.9134ZM104.777 46.688L101.969 53H101.093L98.2972 46.688H99.1852L101.549 52.064L103.937 46.688H104.777ZM107.998 46.64C108.822 46.64 109.454 46.848 109.894 47.264C110.334 47.672 110.554 48.28 110.554 49.088V53H109.738V52.016C109.546 52.344 109.262 52.6 108.886 52.784C108.518 52.968 108.078 53.06 107.566 53.06C106.862 53.06 106.302 52.892 105.886 52.556C105.47 52.22 105.262 51.776 105.262 51.224C105.262 50.688 105.454 50.256 105.838 49.928C106.23 49.6 106.85 49.436 107.698 49.436H109.702V49.052C109.702 48.508 109.55 48.096 109.246 47.816C108.942 47.528 108.498 47.384 107.914 47.384C107.514 47.384 107.13 47.452 106.762 47.588C106.394 47.716 106.078 47.896 105.814 48.128L105.43 47.492C105.75 47.22 106.134 47.012 106.582 46.868C107.03 46.716 107.502 46.64 107.998 46.64ZM107.698 52.388C108.178 52.388 108.59 52.28 108.934 52.064C109.278 51.84 109.534 51.52 109.702 51.104V50.072H107.722C106.642 50.072 106.102 50.448 106.102 51.2C106.102 51.568 106.242 51.86 106.522 52.076C106.802 52.284 107.194 52.388 107.698 52.388ZM116.084 46.64C116.876 46.64 117.504 46.872 117.968 47.336C118.44 47.792 118.676 48.46 118.676 49.34V53H117.824V49.424C117.824 48.768 117.66 48.268 117.332 47.924C117.004 47.58 116.536 47.408 115.928 47.408C115.248 47.408 114.708 47.612 114.308 48.02C113.916 48.42 113.72 48.976 113.72 49.688V53H112.868V46.688H113.684V47.852C113.916 47.468 114.236 47.172 114.644 46.964C115.06 46.748 115.54 46.64 116.084 46.64ZM120.989 46.688H121.841V53H120.989V46.688ZM121.421 45.308C121.245 45.308 121.097 45.248 120.977 45.128C120.857 45.008 120.797 44.864 120.797 44.696C120.797 44.536 120.857 44.396 120.977 44.276C121.097 44.156 121.245 44.096 121.421 44.096C121.597 44.096 121.745 44.156 121.865 44.276C121.985 44.388 122.045 44.524 122.045 44.684C122.045 44.86 121.985 45.008 121.865 45.128C121.745 45.248 121.597 45.308 121.421 45.308ZM129.707 50.108H124.427C124.475 50.764 124.727 51.296 125.183 51.704C125.639 52.104 126.215 52.304 126.911 52.304C127.303 52.304 127.663 52.236 127.991 52.1C128.319 51.956 128.603 51.748 128.843 51.476L129.323 52.028C129.043 52.364 128.691 52.62 128.267 52.796C127.851 52.972 127.391 53.06 126.887 53.06C126.239 53.06 125.663 52.924 125.159 52.652C124.663 52.372 124.275 51.988 123.995 51.5C123.715 51.012 123.575 50.46 123.575 49.844C123.575 49.228 123.707 48.676 123.971 48.188C124.243 47.7 124.611 47.32 125.075 47.048C125.547 46.776 126.075 46.64 126.659 46.64C127.243 46.64 127.767 46.776 128.231 47.048C128.695 47.32 129.059 47.7 129.323 48.188C129.587 48.668 129.719 49.22 129.719 49.844L129.707 50.108ZM126.659 47.372C126.051 47.372 125.539 47.568 125.123 47.96C124.715 48.344 124.483 48.848 124.427 49.472H128.903C128.847 48.848 128.611 48.344 128.195 47.96C127.787 47.568 127.275 47.372 126.659 47.372ZM133.146 53.06C132.634 53.06 132.142 52.988 131.67 52.844C131.206 52.692 130.842 52.504 130.578 52.28L130.962 51.608C131.226 51.816 131.558 51.988 131.958 52.124C132.358 52.252 132.774 52.316 133.206 52.316C133.782 52.316 134.206 52.228 134.478 52.052C134.758 51.868 134.898 51.612 134.898 51.284C134.898 51.052 134.822 50.872 134.67 50.744C134.518 50.608 134.326 50.508 134.094 50.444C133.862 50.372 133.554 50.304 133.17 50.24C132.658 50.144 132.246 50.048 131.934 49.952C131.622 49.848 131.354 49.676 131.13 49.436C130.914 49.196 130.806 48.864 130.806 48.44C130.806 47.912 131.026 47.48 131.466 47.144C131.906 46.808 132.518 46.64 133.302 46.64C133.71 46.64 134.118 46.696 134.526 46.808C134.934 46.912 135.27 47.052 135.534 47.228L135.162 47.912C134.642 47.552 134.022 47.372 133.302 47.372C132.758 47.372 132.346 47.468 132.066 47.66C131.794 47.852 131.658 48.104 131.658 48.416C131.658 48.656 131.734 48.848 131.886 48.992C132.046 49.136 132.242 49.244 132.474 49.316C132.706 49.38 133.026 49.448 133.434 49.52C133.938 49.616 134.342 49.712 134.646 49.808C134.95 49.904 135.21 50.068 135.426 50.3C135.642 50.532 135.75 50.852 135.75 51.26C135.75 51.812 135.518 52.252 135.054 52.58C134.598 52.9 133.962 53.06 133.146 53.06ZM139.533 46.64C140.357 46.64 140.989 46.848 141.429 47.264C141.869 47.672 142.089 48.28 142.089 49.088V53H141.273V52.016C141.081 52.344 140.797 52.6 140.421 52.784C140.053 52.968 139.613 53.06 139.101 53.06C138.397 53.06 137.837 52.892 137.421 52.556C137.005 52.22 136.797 51.776 136.797 51.224C136.797 50.688 136.989 50.256 137.373 49.928C137.765 49.6 138.385 49.436 139.233 49.436H141.237V49.052C141.237 48.508 141.085 48.096 140.781 47.816C140.477 47.528 140.033 47.384 139.449 47.384C139.049 47.384 138.665 47.452 138.297 47.588C137.929 47.716 137.613 47.896 137.349 48.128L136.965 47.492C137.285 47.22 137.669 47.012 138.117 46.868C138.565 46.716 139.037 46.64 139.533 46.64ZM139.233 52.388C139.713 52.388 140.125 52.28 140.469 52.064C140.813 51.84 141.069 51.52 141.237 51.104V50.072H139.257C138.177 50.072 137.637 50.448 137.637 51.2C137.637 51.568 137.777 51.86 138.057 52.076C138.337 52.284 138.729 52.388 139.233 52.388ZM144.403 46.688H145.255V53H144.403V46.688ZM144.835 45.308C144.659 45.308 144.511 45.248 144.391 45.128C144.271 45.008 144.211 44.864 144.211 44.696C144.211 44.536 144.271 44.396 144.391 44.276C144.511 44.156 144.659 44.096 144.835 44.096C145.011 44.096 145.159 44.156 145.279 44.276C145.399 44.388 145.459 44.524 145.459 44.684C145.459 44.86 145.399 45.008 145.279 45.128C145.159 45.248 145.011 45.308 144.835 45.308ZM150.95 52.616C150.79 52.76 150.59 52.872 150.35 52.952C150.118 53.024 149.874 53.06 149.618 53.06C149.026 53.06 148.57 52.9 148.25 52.58C147.93 52.26 147.77 51.808 147.77 51.224V47.408H146.642V46.688H147.77V45.308H148.622V46.688H150.542V47.408H148.622V51.176C148.622 51.552 148.714 51.84 148.898 52.04C149.09 52.232 149.362 52.328 149.714 52.328C149.89 52.328 150.058 52.3 150.218 52.244C150.386 52.188 150.53 52.108 150.65 52.004L150.95 52.616ZM154.709 46.64C155.533 46.64 156.165 46.848 156.605 47.264C157.045 47.672 157.265 48.28 157.265 49.088V53H156.449V52.016C156.257 52.344 155.973 52.6 155.597 52.784C155.229 52.968 154.789 53.06 154.277 53.06C153.573 53.06 153.013 52.892 152.597 52.556C152.181 52.22 151.973 51.776 151.973 51.224C151.973 50.688 152.165 50.256 152.549 49.928C152.941 49.6 153.561 49.436 154.409 49.436H156.413V49.052C156.413 48.508 156.261 48.096 155.957 47.816C155.653 47.528 155.209 47.384 154.625 47.384C154.225 47.384 153.841 47.452 153.473 47.588C153.105 47.716 152.789 47.896 152.525 48.128L152.141 47.492C152.461 47.22 152.845 47.012 153.293 46.868C153.741 46.716 154.213 46.64 154.709 46.64ZM154.409 52.388C154.889 52.388 155.301 52.28 155.645 52.064C155.989 51.84 156.245 51.52 156.413 51.104V50.072H154.433C153.353 50.072 152.812 50.448 152.812 51.2C152.812 51.568 152.953 51.86 153.233 52.076C153.513 52.284 153.905 52.388 154.409 52.388ZM159.663 53.06C159.487 53.06 159.335 52.996 159.207 52.868C159.087 52.74 159.027 52.584 159.027 52.4C159.027 52.216 159.087 52.064 159.207 51.944C159.335 51.816 159.487 51.752 159.663 51.752C159.839 51.752 159.991 51.816 160.119 51.944C160.247 52.064 160.311 52.216 160.311 52.4C160.311 52.584 160.247 52.74 160.119 52.868C159.991 52.996 159.839 53.06 159.663 53.06ZM162.938 47.924C163.138 47.5 163.434 47.18 163.826 46.964C164.226 46.748 164.718 46.64 165.302 46.64V47.468L165.098 47.456C164.434 47.456 163.914 47.66 163.538 48.068C163.162 48.476 162.974 49.048 162.974 49.784V53H162.122V46.688H162.938V47.924ZM172.626 46.688V53H171.81V51.848C171.586 52.232 171.278 52.532 170.886 52.748C170.494 52.956 170.046 53.06 169.542 53.06C168.718 53.06 168.066 52.832 167.586 52.376C167.114 51.912 166.878 51.236 166.878 50.348V46.688H167.73V50.264C167.73 50.928 167.894 51.432 168.222 51.776C168.55 52.12 169.018 52.292 169.626 52.292C170.29 52.292 170.814 52.092 171.198 51.692C171.582 51.284 171.774 50.72 171.774 50V46.688H172.626ZM175.108 51.752C175.292 51.752 175.444 51.816 175.564 51.944C175.684 52.064 175.744 52.216 175.744 52.4C175.744 52.496 175.728 52.6 175.696 52.712C175.672 52.824 175.632 52.952 175.576 53.096L175.072 54.752H174.496L174.904 53.012C174.776 52.972 174.672 52.9 174.592 52.796C174.512 52.684 174.472 52.552 174.472 52.4C174.472 52.216 174.532 52.064 174.652 51.944C174.772 51.816 174.924 51.752 175.108 51.752ZM185.868 52.232V53H179.976V52.388L183.468 48.968C183.908 48.536 184.204 48.164 184.356 47.852C184.516 47.532 184.596 47.212 184.596 46.892C184.596 46.396 184.424 46.012 184.08 45.74C183.744 45.46 183.26 45.32 182.628 45.32C181.644 45.32 180.88 45.632 180.336 46.256L179.724 45.728C180.052 45.344 180.468 45.048 180.972 44.84C181.484 44.632 182.06 44.528 182.7 44.528C183.556 44.528 184.232 44.732 184.728 45.14C185.232 45.54 185.484 46.092 185.484 46.796C185.484 47.228 185.388 47.644 185.196 48.044C185.004 48.444 184.64 48.904 184.104 49.424L181.248 52.232H185.868ZM190.253 53.072C189.605 53.072 189.025 52.9 188.513 52.556C188.009 52.212 187.613 51.72 187.325 51.08C187.045 50.432 186.905 49.672 186.905 48.8C186.905 47.928 187.045 47.172 187.325 46.532C187.613 45.884 188.009 45.388 188.513 45.044C189.025 44.7 189.605 44.528 190.253 44.528C190.901 44.528 191.477 44.7 191.981 45.044C192.493 45.388 192.893 45.884 193.181 46.532C193.469 47.172 193.613 47.928 193.613 48.8C193.613 49.672 193.469 50.432 193.181 51.08C192.893 51.72 192.493 52.212 191.981 52.556C191.477 52.9 190.901 53.072 190.253 53.072ZM190.253 52.28C190.741 52.28 191.169 52.144 191.537 51.872C191.913 51.6 192.205 51.204 192.413 50.684C192.621 50.164 192.725 49.536 192.725 48.8C192.725 48.064 192.621 47.436 192.413 46.916C192.205 46.396 191.913 46 191.537 45.728C191.169 45.456 190.741 45.32 190.253 45.32C189.765 45.32 189.333 45.456 188.957 45.728C188.589 46 188.301 46.396 188.093 46.916C187.885 47.436 187.781 48.064 187.781 48.8C187.781 49.536 187.885 50.164 188.093 50.684C188.301 51.204 188.589 51.6 188.957 51.872C189.333 52.144 189.765 52.28 190.253 52.28ZM197.059 48.044C198.275 48.044 199.159 48.264 199.711 48.704C200.271 49.136 200.551 49.744 200.551 50.528C200.551 51.016 200.435 51.452 200.203 51.836C199.979 52.22 199.639 52.524 199.183 52.748C198.727 52.964 198.167 53.072 197.503 53.072C196.903 53.072 196.331 52.976 195.787 52.784C195.251 52.584 194.819 52.32 194.491 51.992L194.911 51.308C195.191 51.596 195.559 51.832 196.015 52.016C196.471 52.192 196.963 52.28 197.491 52.28C198.187 52.28 198.723 52.124 199.099 51.812C199.483 51.5 199.675 51.084 199.675 50.564C199.675 49.988 199.459 49.552 199.027 49.256C198.603 48.96 197.883 48.812 196.867 48.812H195.079L195.511 44.6H200.107V45.368H196.267L195.979 48.044H197.059ZM208.787 50.792H207.107V53H206.243V50.792H201.503V50.168L205.955 44.6H206.915L202.619 50.024H206.267V48.08H207.107V50.024H208.787V50.792ZM213.466 44.096H214.258V55.328H213.466V44.096ZM227.213 44.6V53H226.337V49.124H221.081V53H220.193V44.6H221.081V48.344H226.337V44.6H227.213ZM232.017 46.64C232.841 46.64 233.473 46.848 233.913 47.264C234.353 47.672 234.573 48.28 234.573 49.088V53H233.757V52.016C233.565 52.344 233.281 52.6 232.905 52.784C232.537 52.968 232.097 53.06 231.585 53.06C230.881 53.06 230.321 52.892 229.905 52.556C229.489 52.22 229.281 51.776 229.281 51.224C229.281 50.688 229.473 50.256 229.857 49.928C230.249 49.6 230.869 49.436 231.717 49.436H233.721V49.052C233.721 48.508 233.569 48.096 233.265 47.816C232.961 47.528 232.517 47.384 231.933 47.384C231.533 47.384 231.149 47.452 230.781 47.588C230.413 47.716 230.097 47.896 229.833 48.128L229.449 47.492C229.769 47.22 230.153 47.012 230.601 46.868C231.049 46.716 231.521 46.64 232.017 46.64ZM231.717 52.388C232.197 52.388 232.609 52.28 232.953 52.064C233.297 51.84 233.553 51.52 233.721 51.104V50.072H231.741C230.661 50.072 230.121 50.448 230.121 51.2C230.121 51.568 230.261 51.86 230.541 52.076C230.821 52.284 231.213 52.388 231.717 52.388ZM239.784 49.712C240.232 49.816 240.576 49.996 240.816 50.252C241.064 50.508 241.188 50.82 241.188 51.188C241.188 51.556 241.06 51.884 240.804 52.172C240.556 52.46 240.216 52.684 239.784 52.844C239.352 52.996 238.876 53.072 238.356 53.072C237.9 53.072 237.452 53.008 237.012 52.88C236.572 52.744 236.188 52.548 235.86 52.292L236.148 51.656C236.436 51.872 236.772 52.04 237.156 52.16C237.54 52.28 237.928 52.34 238.32 52.34C238.904 52.34 239.38 52.232 239.748 52.016C240.124 51.792 240.312 51.492 240.312 51.116C240.312 50.78 240.16 50.52 239.856 50.336C239.552 50.144 239.136 50.048 238.608 50.048H237.528V49.424H238.56C239.032 49.424 239.412 49.336 239.7 49.16C239.988 48.976 240.132 48.732 240.132 48.428C240.132 48.092 239.968 47.828 239.64 47.636C239.32 47.444 238.9 47.348 238.38 47.348C237.7 47.348 237.028 47.52 236.364 47.864L236.124 47.204C236.876 46.812 237.656 46.616 238.464 46.616C238.944 46.616 239.376 46.688 239.76 46.832C240.152 46.968 240.456 47.164 240.672 47.42C240.896 47.676 241.008 47.972 241.008 48.308C241.008 48.628 240.896 48.912 240.672 49.16C240.456 49.408 240.16 49.592 239.784 49.712ZM247.142 49.736C247.998 49.936 248.426 50.452 248.426 51.284C248.426 51.836 248.222 52.26 247.814 52.556C247.406 52.852 246.798 53 245.99 53H243.122V46.688H245.906C246.626 46.688 247.19 46.828 247.598 47.108C248.006 47.388 248.21 47.788 248.21 48.308C248.21 48.652 248.114 48.948 247.922 49.196C247.738 49.436 247.478 49.616 247.142 49.736ZM243.95 49.496H245.846C246.334 49.496 246.706 49.404 246.962 49.22C247.226 49.036 247.358 48.768 247.358 48.416C247.358 48.064 247.226 47.8 246.962 47.624C246.706 47.448 246.334 47.36 245.846 47.36H243.95V49.496ZM245.954 52.328C246.498 52.328 246.906 52.24 247.178 52.064C247.45 51.888 247.586 51.612 247.586 51.236C247.586 50.86 247.462 50.584 247.214 50.408C246.966 50.224 246.574 50.132 246.038 50.132H243.95V52.328H245.954ZM252.595 46.64C253.419 46.64 254.051 46.848 254.491 47.264C254.931 47.672 255.151 48.28 255.151 49.088V53H254.335V52.016C254.143 52.344 253.859 52.6 253.483 52.784C253.115 52.968 252.675 53.06 252.163 53.06C251.459 53.06 250.899 52.892 250.483 52.556C250.067 52.22 249.859 51.776 249.859 51.224C249.859 50.688 250.051 50.256 250.435 49.928C250.827 49.6 251.447 49.436 252.295 49.436H254.299V49.052C254.299 48.508 254.147 48.096 253.843 47.816C253.539 47.528 253.095 47.384 252.511 47.384C252.111 47.384 251.727 47.452 251.359 47.588C250.991 47.716 250.675 47.896 250.411 48.128L250.027 47.492C250.347 47.22 250.731 47.012 251.179 46.868C251.627 46.716 252.099 46.64 252.595 46.64ZM252.295 52.388C252.775 52.388 253.187 52.28 253.531 52.064C253.875 51.84 254.131 51.52 254.299 51.104V50.072H252.319C251.239 50.072 250.699 50.448 250.699 51.2C250.699 51.568 250.839 51.86 251.119 52.076C251.399 52.284 251.791 52.388 252.295 52.388ZM257.419 46.688H258.271V49.484H262.243V46.688H263.095V53H262.243V50.216H258.271V53H257.419V46.688ZM265.517 46.688H266.369V51.704L270.581 46.688H271.337V53H270.485V47.984L266.285 53H265.517V46.688ZM279.298 50.108H274.018C274.066 50.764 274.318 51.296 274.774 51.704C275.23 52.104 275.806 52.304 276.502 52.304C276.894 52.304 277.254 52.236 277.582 52.1C277.91 51.956 278.194 51.748 278.434 51.476L278.914 52.028C278.634 52.364 278.282 52.62 277.858 52.796C277.442 52.972 276.982 53.06 276.478 53.06C275.83 53.06 275.254 52.924 274.75 52.652C274.254 52.372 273.866 51.988 273.586 51.5C273.306 51.012 273.166 50.46 273.166 49.844C273.166 49.228 273.298 48.676 273.562 48.188C273.834 47.7 274.202 47.32 274.666 47.048C275.138 46.776 275.666 46.64 276.25 46.64C276.834 46.64 277.358 46.776 277.822 47.048C278.286 47.32 278.65 47.7 278.914 48.188C279.178 48.668 279.31 49.22 279.31 49.844L279.298 50.108ZM276.25 47.372C275.642 47.372 275.13 47.568 274.714 47.96C274.306 48.344 274.074 48.848 274.018 49.472H278.494C278.438 48.848 278.202 48.344 277.786 47.96C277.378 47.568 276.866 47.372 276.25 47.372ZM286.629 50.192H285.189V53H284.337V46.688H285.189V49.46H286.641L288.861 46.688H289.785L287.301 49.748L289.965 53H288.957L286.629 50.192ZM293.691 53.06C293.083 53.06 292.535 52.924 292.047 52.652C291.559 52.372 291.175 51.988 290.895 51.5C290.615 51.012 290.475 50.46 290.475 49.844C290.475 49.228 290.615 48.676 290.895 48.188C291.175 47.7 291.559 47.32 292.047 47.048C292.535 46.776 293.083 46.64 293.691 46.64C294.299 46.64 294.847 46.776 295.335 47.048C295.823 47.32 296.203 47.7 296.475 48.188C296.755 48.676 296.895 49.228 296.895 49.844C296.895 50.46 296.755 51.012 296.475 51.5C296.203 51.988 295.823 52.372 295.335 52.652C294.847 52.924 294.299 53.06 293.691 53.06ZM293.691 52.304C294.139 52.304 294.539 52.204 294.891 52.004C295.251 51.796 295.531 51.504 295.731 51.128C295.931 50.752 296.031 50.324 296.031 49.844C296.031 49.364 295.931 48.936 295.731 48.56C295.531 48.184 295.251 47.896 294.891 47.696C294.539 47.488 294.139 47.384 293.691 47.384C293.243 47.384 292.839 47.488 292.479 47.696C292.127 47.896 291.847 48.184 291.639 48.56C291.439 48.936 291.339 49.364 291.339 49.844C291.339 50.324 291.439 50.752 291.639 51.128C291.847 51.504 292.127 51.796 292.479 52.004C292.839 52.204 293.243 52.304 293.691 52.304ZM305.772 46.688V53H304.992V48.008L302.436 52.232H302.052L299.496 47.996V53H298.716V46.688H299.58L302.256 51.236L304.98 46.688H305.772ZM313.86 46.688V53H313.008V47.444H309.048V53H308.196V46.688H313.86ZM318.454 46.64C319.278 46.64 319.91 46.848 320.35 47.264C320.79 47.672 321.01 48.28 321.01 49.088V53H320.194V52.016C320.002 52.344 319.718 52.6 319.342 52.784C318.974 52.968 318.534 53.06 318.022 53.06C317.318 53.06 316.758 52.892 316.342 52.556C315.926 52.22 315.718 51.776 315.718 51.224C315.718 50.688 315.91 50.256 316.294 49.928C316.686 49.6 317.306 49.436 318.154 49.436H320.158V49.052C320.158 48.508 320.006 48.096 319.702 47.816C319.398 47.528 318.954 47.384 318.37 47.384C317.97 47.384 317.586 47.452 317.218 47.588C316.85 47.716 316.534 47.896 316.27 48.128L315.886 47.492C316.206 47.22 316.59 47.012 317.038 46.868C317.486 46.716 317.958 46.64 318.454 46.64ZM318.154 52.388C318.634 52.388 319.046 52.28 319.39 52.064C319.734 51.84 319.99 51.52 320.158 51.104V50.072H318.178C317.098 50.072 316.558 50.448 316.558 51.2C316.558 51.568 316.698 51.86 316.978 52.076C317.258 52.284 317.65 52.388 318.154 52.388ZM323.278 46.688H324.13V49.484H328.102V46.688H328.954V53H328.102V50.216H324.13V53H323.278V46.688ZM331.376 46.688H332.228V51.704L336.44 46.688H337.196V53H336.344V47.984L332.144 53H331.376V46.688ZM339.638 46.688H340.49V51.704L344.702 46.688H345.458V53H344.606V47.984L340.406 53H339.638V46.688ZM351.04 46.688H351.892V51.704L356.104 46.688H356.86V53H356.008V47.984L351.808 53H351.04V46.688ZM364.462 46.688V53H363.61V47.444H360.586L360.502 49.004C360.438 50.316 360.286 51.324 360.046 52.028C359.806 52.732 359.378 53.084 358.762 53.084C358.594 53.084 358.39 53.052 358.15 52.988L358.21 52.256C358.354 52.288 358.454 52.304 358.51 52.304C358.838 52.304 359.086 52.152 359.254 51.848C359.422 51.544 359.534 51.168 359.59 50.72C359.646 50.272 359.694 49.68 359.734 48.944L359.842 46.688H364.462ZM366.884 46.688H367.736V51.704L371.948 46.688H372.704V53H371.852V47.984L367.652 53H366.884V46.688ZM378.49 44.6H379.366V51.56L384.742 44.6H385.546V53H384.67V46.052L379.294 53H378.49V44.6ZM395.449 44.6V53H394.573V45.368H389.257V53H388.381V44.6H395.449ZM405.108 53.072C404.276 53.072 403.52 52.888 402.84 52.52C402.168 52.144 401.64 51.632 401.256 50.984C400.88 50.336 400.692 49.608 400.692 48.8C400.692 47.992 400.88 47.264 401.256 46.616C401.64 45.968 402.168 45.46 402.84 45.092C403.52 44.716 404.276 44.528 405.108 44.528C405.94 44.528 406.688 44.712 407.352 45.08C408.024 45.448 408.552 45.96 408.936 46.616C409.32 47.264 409.512 47.992 409.512 48.8C409.512 49.608 409.32 50.34 408.936 50.996C408.552 51.644 408.024 52.152 407.352 52.52C406.688 52.888 405.94 53.072 405.108 53.072ZM405.108 52.28C405.772 52.28 406.372 52.132 406.908 51.836C407.444 51.532 407.864 51.116 408.168 50.588C408.472 50.052 408.624 49.456 408.624 48.8C408.624 48.144 408.472 47.552 408.168 47.024C407.864 46.488 407.444 46.072 406.908 45.776C406.372 45.472 405.772 45.32 405.108 45.32C404.444 45.32 403.84 45.472 403.296 45.776C402.76 46.072 402.336 46.488 402.024 47.024C401.72 47.552 401.568 48.144 401.568 48.8C401.568 49.456 401.72 50.052 402.024 50.588C402.336 51.116 402.76 51.532 403.296 51.836C403.84 52.132 404.444 52.28 405.108 52.28ZM416.971 45.368H412.495L412.507 53H411.631V44.6H416.971V45.368ZM421.642 44.6C422.714 44.6 423.554 44.856 424.162 45.368C424.77 45.88 425.074 46.584 425.074 47.48C425.074 48.376 424.77 49.08 424.162 49.592C423.554 50.096 422.714 50.348 421.642 50.348H419.386V53H418.498V44.6H421.642ZM421.618 49.568C422.45 49.568 423.086 49.388 423.526 49.028C423.966 48.66 424.186 48.144 424.186 47.48C424.186 46.8 423.966 46.28 423.526 45.92C423.086 45.552 422.45 45.368 421.618 45.368H419.386V49.568H421.618ZM433.92 44.6V53H433.044V49.124H427.788V53H426.9V44.6H427.788V48.344H433.044V44.6H433.92ZM442.452 53.072C441.804 53.072 441.224 52.9 440.712 52.556C440.208 52.212 439.812 51.72 439.524 51.08C439.244 50.432 439.104 49.672 439.104 48.8C439.104 47.928 439.244 47.172 439.524 46.532C439.812 45.884 440.208 45.388 440.712 45.044C441.224 44.7 441.804 44.528 442.452 44.528C443.1 44.528 443.676 44.7 444.18 45.044C444.692 45.388 445.092 45.884 445.38 46.532C445.668 47.172 445.812 47.928 445.812 48.8C445.812 49.672 445.668 50.432 445.38 51.08C445.092 51.72 444.692 52.212 444.18 52.556C443.676 52.9 443.1 53.072 442.452 53.072ZM442.452 52.28C442.94 52.28 443.368 52.144 443.736 51.872C444.112 51.6 444.404 51.204 444.612 50.684C444.82 50.164 444.924 49.536 444.924 48.8C444.924 48.064 444.82 47.436 444.612 46.916C444.404 46.396 444.112 46 443.736 45.728C443.368 45.456 442.94 45.32 442.452 45.32C441.964 45.32 441.532 45.456 441.156 45.728C440.788 46 440.5 46.396 440.292 46.916C440.084 47.436 439.98 48.064 439.98 48.8C439.98 49.536 440.084 50.164 440.292 50.684C440.5 51.204 440.788 51.6 441.156 51.872C441.532 52.144 441.964 52.28 442.452 52.28ZM450.398 53.072C449.75 53.072 449.17 52.9 448.658 52.556C448.154 52.212 447.758 51.72 447.47 51.08C447.19 50.432 447.05 49.672 447.05 48.8C447.05 47.928 447.19 47.172 447.47 46.532C447.758 45.884 448.154 45.388 448.658 45.044C449.17 44.7 449.75 44.528 450.398 44.528C451.046 44.528 451.622 44.7 452.126 45.044C452.638 45.388 453.038 45.884 453.326 46.532C453.614 47.172 453.758 47.928 453.758 48.8C453.758 49.672 453.614 50.432 453.326 51.08C453.038 51.72 452.638 52.212 452.126 52.556C451.622 52.9 451.046 53.072 450.398 53.072ZM450.398 52.28C450.886 52.28 451.314 52.144 451.682 51.872C452.058 51.6 452.35 51.204 452.558 50.684C452.766 50.164 452.87 49.536 452.87 48.8C452.87 48.064 452.766 47.436 452.558 46.916C452.35 46.396 452.058 46 451.682 45.728C451.314 45.456 450.886 45.32 450.398 45.32C449.91 45.32 449.478 45.456 449.102 45.728C448.734 46 448.446 46.396 448.238 46.916C448.03 47.436 447.926 48.064 447.926 48.8C447.926 49.536 448.03 50.164 448.238 50.684C448.446 51.204 448.734 51.6 449.102 51.872C449.478 52.144 449.91 52.28 450.398 52.28ZM458.343 53.072C457.695 53.072 457.115 52.9 456.603 52.556C456.099 52.212 455.703 51.72 455.415 51.08C455.135 50.432 454.995 49.672 454.995 48.8C454.995 47.928 455.135 47.172 455.415 46.532C455.703 45.884 456.099 45.388 456.603 45.044C457.115 44.7 457.695 44.528 458.343 44.528C458.991 44.528 459.567 44.7 460.071 45.044C460.583 45.388 460.983 45.884 461.271 46.532C461.559 47.172 461.703 47.928 461.703 48.8C461.703 49.672 461.559 50.432 461.271 51.08C460.983 51.72 460.583 52.212 460.071 52.556C459.567 52.9 458.991 53.072 458.343 53.072ZM458.343 52.28C458.831 52.28 459.259 52.144 459.627 51.872C460.003 51.6 460.295 51.204 460.503 50.684C460.711 50.164 460.815 49.536 460.815 48.8C460.815 48.064 460.711 47.436 460.503 46.916C460.295 46.396 460.003 46 459.627 45.728C459.259 45.456 458.831 45.32 458.343 45.32C457.855 45.32 457.423 45.456 457.047 45.728C456.679 46 456.391 46.396 456.183 46.916C455.975 47.436 455.871 48.064 455.871 48.8C455.871 49.536 455.975 50.164 456.183 50.684C456.391 51.204 456.679 51.6 457.047 51.872C457.423 52.144 457.855 52.28 458.343 52.28ZM466.288 53.072C465.64 53.072 465.06 52.9 464.548 52.556C464.044 52.212 463.648 51.72 463.36 51.08C463.08 50.432 462.94 49.672 462.94 48.8C462.94 47.928 463.08 47.172 463.36 46.532C463.648 45.884 464.044 45.388 464.548 45.044C465.06 44.7 465.64 44.528 466.288 44.528C466.936 44.528 467.512 44.7 468.016 45.044C468.528 45.388 468.928 45.884 469.216 46.532C469.504 47.172 469.648 47.928 469.648 48.8C469.648 49.672 469.504 50.432 469.216 51.08C468.928 51.72 468.528 52.212 468.016 52.556C467.512 52.9 466.936 53.072 466.288 53.072ZM466.288 52.28C466.776 52.28 467.204 52.144 467.572 51.872C467.948 51.6 468.24 51.204 468.448 50.684C468.656 50.164 468.76 49.536 468.76 48.8C468.76 48.064 468.656 47.436 468.448 46.916C468.24 46.396 467.948 46 467.572 45.728C467.204 45.456 466.776 45.32 466.288 45.32C465.8 45.32 465.368 45.456 464.992 45.728C464.624 46 464.336 46.396 464.128 46.916C463.92 47.436 463.816 48.064 463.816 48.8C463.816 49.536 463.92 50.164 464.128 50.684C464.336 51.204 464.624 51.6 464.992 51.872C465.368 52.144 465.8 52.28 466.288 52.28ZM474.234 53.072C473.586 53.072 473.006 52.9 472.494 52.556C471.99 52.212 471.594 51.72 471.306 51.08C471.026 50.432 470.886 49.672 470.886 48.8C470.886 47.928 471.026 47.172 471.306 46.532C471.594 45.884 471.99 45.388 472.494 45.044C473.006 44.7 473.586 44.528 474.234 44.528C474.882 44.528 475.458 44.7 475.962 45.044C476.474 45.388 476.874 45.884 477.162 46.532C477.45 47.172 477.594 47.928 477.594 48.8C477.594 49.672 477.45 50.432 477.162 51.08C476.874 51.72 476.474 52.212 475.962 52.556C475.458 52.9 474.882 53.072 474.234 53.072ZM474.234 52.28C474.722 52.28 475.15 52.144 475.518 51.872C475.894 51.6 476.186 51.204 476.394 50.684C476.602 50.164 476.706 49.536 476.706 48.8C476.706 48.064 476.602 47.436 476.394 46.916C476.186 46.396 475.894 46 475.518 45.728C475.15 45.456 474.722 45.32 474.234 45.32C473.746 45.32 473.314 45.456 472.938 45.728C472.57 46 472.282 46.396 472.074 46.916C471.866 47.436 471.762 48.064 471.762 48.8C471.762 49.536 471.866 50.164 472.074 50.684C472.282 51.204 472.57 51.6 472.938 51.872C473.314 52.144 473.746 52.28 474.234 52.28ZM482.179 53.072C481.531 53.072 480.951 52.9 480.439 52.556C479.935 52.212 479.539 51.72 479.251 51.08C478.971 50.432 478.831 49.672 478.831 48.8C478.831 47.928 478.971 47.172 479.251 46.532C479.539 45.884 479.935 45.388 480.439 45.044C480.951 44.7 481.531 44.528 482.179 44.528C482.827 44.528 483.403 44.7 483.907 45.044C484.419 45.388 484.819 45.884 485.107 46.532C485.395 47.172 485.539 47.928 485.539 48.8C485.539 49.672 485.395 50.432 485.107 51.08C484.819 51.72 484.419 52.212 483.907 52.556C483.403 52.9 482.827 53.072 482.179 53.072ZM482.179 52.28C482.667 52.28 483.095 52.144 483.463 51.872C483.839 51.6 484.131 51.204 484.339 50.684C484.547 50.164 484.651 49.536 484.651 48.8C484.651 48.064 484.547 47.436 484.339 46.916C484.131 46.396 483.839 46 483.463 45.728C483.095 45.456 482.667 45.32 482.179 45.32C481.691 45.32 481.259 45.456 480.883 45.728C480.515 46 480.227 46.396 480.019 46.916C479.811 47.436 479.707 48.064 479.707 48.8C479.707 49.536 479.811 50.164 480.019 50.684C480.227 51.204 480.515 51.6 480.883 51.872C481.259 52.144 481.691 52.28 482.179 52.28ZM490.124 53.072C489.476 53.072 488.896 52.9 488.384 52.556C487.88 52.212 487.484 51.72 487.196 51.08C486.916 50.432 486.776 49.672 486.776 48.8C486.776 47.928 486.916 47.172 487.196 46.532C487.484 45.884 487.88 45.388 488.384 45.044C488.896 44.7 489.476 44.528 490.124 44.528C490.772 44.528 491.348 44.7 491.852 45.044C492.364 45.388 492.764 45.884 493.052 46.532C493.34 47.172 493.484 47.928 493.484 48.8C493.484 49.672 493.34 50.432 493.052 51.08C492.764 51.72 492.364 52.212 491.852 52.556C491.348 52.9 490.772 53.072 490.124 53.072ZM490.124 52.28C490.612 52.28 491.04 52.144 491.408 51.872C491.784 51.6 492.076 51.204 492.284 50.684C492.492 50.164 492.596 49.536 492.596 48.8C492.596 48.064 492.492 47.436 492.284 46.916C492.076 46.396 491.784 46 491.408 45.728C491.04 45.456 490.612 45.32 490.124 45.32C489.636 45.32 489.204 45.456 488.828 45.728C488.46 46 488.172 46.396 487.964 46.916C487.756 47.436 487.652 48.064 487.652 48.8C487.652 49.536 487.756 50.164 487.964 50.684C488.172 51.204 488.46 51.6 488.828 51.872C489.204 52.144 489.636 52.28 490.124 52.28ZM498.07 53.072C497.422 53.072 496.842 52.9 496.33 52.556C495.826 52.212 495.43 51.72 495.142 51.08C494.862 50.432 494.722 49.672 494.722 48.8C494.722 47.928 494.862 47.172 495.142 46.532C495.43 45.884 495.826 45.388 496.33 45.044C496.842 44.7 497.422 44.528 498.07 44.528C498.718 44.528 499.294 44.7 499.798 45.044C500.31 45.388 500.71 45.884 500.998 46.532C501.286 47.172 501.43 47.928 501.43 48.8C501.43 49.672 501.286 50.432 500.998 51.08C500.71 51.72 500.31 52.212 499.798 52.556C499.294 52.9 498.718 53.072 498.07 53.072ZM498.07 52.28C498.558 52.28 498.986 52.144 499.354 51.872C499.73 51.6 500.022 51.204 500.23 50.684C500.438 50.164 500.542 49.536 500.542 48.8C500.542 48.064 500.438 47.436 500.23 46.916C500.022 46.396 499.73 46 499.354 45.728C498.986 45.456 498.558 45.32 498.07 45.32C497.582 45.32 497.15 45.456 496.774 45.728C496.406 46 496.118 46.396 495.91 46.916C495.702 47.436 495.598 48.064 495.598 48.8C495.598 49.536 495.702 50.164 495.91 50.684C496.118 51.204 496.406 51.6 496.774 51.872C497.15 52.144 497.582 52.28 498.07 52.28ZM506.015 53.072C505.367 53.072 504.787 52.9 504.275 52.556C503.771 52.212 503.375 51.72 503.087 51.08C502.807 50.432 502.667 49.672 502.667 48.8C502.667 47.928 502.807 47.172 503.087 46.532C503.375 45.884 503.771 45.388 504.275 45.044C504.787 44.7 505.367 44.528 506.015 44.528C506.663 44.528 507.239 44.7 507.743 45.044C508.255 45.388 508.655 45.884 508.943 46.532C509.231 47.172 509.375 47.928 509.375 48.8C509.375 49.672 509.231 50.432 508.943 51.08C508.655 51.72 508.255 52.212 507.743 52.556C507.239 52.9 506.663 53.072 506.015 53.072ZM506.015 52.28C506.503 52.28 506.931 52.144 507.299 51.872C507.675 51.6 507.967 51.204 508.175 50.684C508.383 50.164 508.487 49.536 508.487 48.8C508.487 48.064 508.383 47.436 508.175 46.916C507.967 46.396 507.675 46 507.299 45.728C506.931 45.456 506.503 45.32 506.015 45.32C505.527 45.32 505.095 45.456 504.719 45.728C504.351 46 504.063 46.396 503.855 46.916C503.647 47.436 503.543 48.064 503.543 48.8C503.543 49.536 503.647 50.164 503.855 50.684C504.063 51.204 504.351 51.6 504.719 51.872C505.095 52.144 505.527 52.28 506.015 52.28ZM513.96 53.072C513.312 53.072 512.732 52.9 512.22 52.556C511.716 52.212 511.32 51.72 511.032 51.08C510.752 50.432 510.612 49.672 510.612 48.8C510.612 47.928 510.752 47.172 511.032 46.532C511.32 45.884 511.716 45.388 512.22 45.044C512.732 44.7 513.312 44.528 513.96 44.528C514.608 44.528 515.184 44.7 515.688 45.044C516.2 45.388 516.6 45.884 516.888 46.532C517.176 47.172 517.32 47.928 517.32 48.8C517.32 49.672 517.176 50.432 516.888 51.08C516.6 51.72 516.2 52.212 515.688 52.556C515.184 52.9 514.608 53.072 513.96 53.072ZM513.96 52.28C514.448 52.28 514.876 52.144 515.244 51.872C515.62 51.6 515.912 51.204 516.12 50.684C516.328 50.164 516.432 49.536 516.432 48.8C516.432 48.064 516.328 47.436 516.12 46.916C515.912 46.396 515.62 46 515.244 45.728C514.876 45.456 514.448 45.32 513.96 45.32C513.472 45.32 513.04 45.456 512.664 45.728C512.296 46 512.008 46.396 511.8 46.916C511.592 47.436 511.488 48.064 511.488 48.8C511.488 49.536 511.592 50.164 511.8 50.684C512.008 51.204 512.296 51.6 512.664 51.872C513.04 52.144 513.472 52.28 513.96 52.28ZM521.906 53.072C521.258 53.072 520.678 52.9 520.166 52.556C519.662 52.212 519.266 51.72 518.978 51.08C518.698 50.432 518.558 49.672 518.558 48.8C518.558 47.928 518.698 47.172 518.978 46.532C519.266 45.884 519.662 45.388 520.166 45.044C520.678 44.7 521.258 44.528 521.906 44.528C522.554 44.528 523.13 44.7 523.634 45.044C524.146 45.388 524.546 45.884 524.834 46.532C525.122 47.172 525.266 47.928 525.266 48.8C525.266 49.672 525.122 50.432 524.834 51.08C524.546 51.72 524.146 52.212 523.634 52.556C523.13 52.9 522.554 53.072 521.906 53.072ZM521.906 52.28C522.394 52.28 522.822 52.144 523.19 51.872C523.566 51.6 523.858 51.204 524.066 50.684C524.274 50.164 524.378 49.536 524.378 48.8C524.378 48.064 524.274 47.436 524.066 46.916C523.858 46.396 523.566 46 523.19 45.728C522.822 45.456 522.394 45.32 521.906 45.32C521.418 45.32 520.986 45.456 520.61 45.728C520.242 46 519.954 46.396 519.746 46.916C519.538 47.436 519.434 48.064 519.434 48.8C519.434 49.536 519.538 50.164 519.746 50.684C519.954 51.204 520.242 51.6 520.61 51.872C520.986 52.144 521.418 52.28 521.906 52.28ZM529.851 53.072C529.203 53.072 528.623 52.9 528.111 52.556C527.607 52.212 527.211 51.72 526.923 51.08C526.643 50.432 526.503 49.672 526.503 48.8C526.503 47.928 526.643 47.172 526.923 46.532C527.211 45.884 527.607 45.388 528.111 45.044C528.623 44.7 529.203 44.528 529.851 44.528C530.499 44.528 531.075 44.7 531.579 45.044C532.091 45.388 532.491 45.884 532.779 46.532C533.067 47.172 533.211 47.928 533.211 48.8C533.211 49.672 533.067 50.432 532.779 51.08C532.491 51.72 532.091 52.212 531.579 52.556C531.075 52.9 530.499 53.072 529.851 53.072ZM529.851 52.28C530.339 52.28 530.767 52.144 531.135 51.872C531.511 51.6 531.803 51.204 532.011 50.684C532.219 50.164 532.323 49.536 532.323 48.8C532.323 48.064 532.219 47.436 532.011 46.916C531.803 46.396 531.511 46 531.135 45.728C530.767 45.456 530.339 45.32 529.851 45.32C529.363 45.32 528.931 45.456 528.555 45.728C528.187 46 527.899 46.396 527.691 46.916C527.483 47.436 527.379 48.064 527.379 48.8C527.379 49.536 527.483 50.164 527.691 50.684C527.899 51.204 528.187 51.6 528.555 51.872C528.931 52.144 529.363 52.28 529.851 52.28ZM537.796 53.072C537.148 53.072 536.568 52.9 536.056 52.556C535.552 52.212 535.156 51.72 534.868 51.08C534.588 50.432 534.448 49.672 534.448 48.8C534.448 47.928 534.588 47.172 534.868 46.532C535.156 45.884 535.552 45.388 536.056 45.044C536.568 44.7 537.148 44.528 537.796 44.528C538.444 44.528 539.02 44.7 539.524 45.044C540.036 45.388 540.436 45.884 540.724 46.532C541.012 47.172 541.156 47.928 541.156 48.8C541.156 49.672 541.012 50.432 540.724 51.08C540.436 51.72 540.036 52.212 539.524 52.556C539.02 52.9 538.444 53.072 537.796 53.072ZM537.796 52.28C538.284 52.28 538.712 52.144 539.08 51.872C539.456 51.6 539.748 51.204 539.956 50.684C540.164 50.164 540.268 49.536 540.268 48.8C540.268 48.064 540.164 47.436 539.956 46.916C539.748 46.396 539.456 46 539.08 45.728C538.712 45.456 538.284 45.32 537.796 45.32C537.308 45.32 536.876 45.456 536.5 45.728C536.132 46 535.844 46.396 535.636 46.916C535.428 47.436 535.324 48.064 535.324 48.8C535.324 49.536 535.428 50.164 535.636 50.684C535.844 51.204 536.132 51.6 536.5 51.872C536.876 52.144 537.308 52.28 537.796 52.28Z" fill="#7E868E"/>
</g>
<defs>
<clipPath id="clip0">
<rect width="605" height="58" fill="white" transform="translate(0.5)"/>
</clipPath>
</defs>
</svg>
